<?xml version="1.0" encoding="utf-8" ?>
<svg baseProfile="full" height="106mm" version="1.1" viewBox="0 0 744.094470 375.590540" width="210mm" xmlns="http://www.w3.org/2000/svg" xmlns:ev="http://www.w3.org/2001/xml-events" xmlns:xlink="http://www.w3.org/1999/xlink"><defs /><rect fill="white" height="100%" width="100%" x="0" y="0" /><g><text font-family="Arial,Helvetica" font-size="10.2" font-weight="bold" x="17.71654" y="38.97638">Empfangsschein</text><text font-family="Arial,Helvetica" font-size="6.8" font-weight="bold" x="17.71654" y="56.69291">Konto / Zahlbar an</text><text font-family="Arial,Helvetica" font-size="8.5" x="17.71654" y="69.09449">CH20 0025 1251 8354 2001 D</text><text font-family="Arial,Helvetica" font-size="8.5" x="17.71654" y="81.49606">Dolder Eis &amp; Bad AG</text><text font-family="Arial,Helvetica" font-size="8.5" x="17.71654" y="93.89764">Adlisbergstrasse 36</text><text font-family="Arial,Helvetica" font-size="8.5" x="17.71654" y="106.29921">CH-8098 Zürich</text><text font-family="Arial,Helvetica" font-size="6.8" font-weight="bold" x="17.71654" y="122.24409">Zahlbar durch</text><text font-family="Arial,Helvetica" font-size="8.5" x="17.71654" y="134.64567">kein Name</text><text font-family="Arial,Helvetica" font-size="8.5" x="17.71654" y="147.04724">keine Strasse</text><text font-family="Arial,Helvetica" font-size="8.5" x="17.71654" y="159.44881">CH-kein Ort kein PLZ</text><text font-family="Arial,Helvetica" font-size="6.8" font-weight="bold" x="17.71654" y="258.66141">Währung</text><text font-family="Arial,Helvetica" font-size="6.8" font-weight="bold" x="60.23622" y="258.66141">Betrag</text><text font-family="Arial,Helvetica" font-size="8.5" x="17.71654" y="276.37795">CHF</text><text font-family="Arial,Helvetica" font-size="8.5" x="60.23622" y="276.37795">76.20</text><text font-family="Arial,Helvetica" font-size="6.8" font-weight="bold" text-anchor="end" x="201.96849" y="308.26771">Annahmestelle</text><line fill="none" stroke="black" stroke-dasharray="2 2" x1="0" x2="744.09447" y1="4.04291" y2="4.04291" /><path d="m 0.764814,4.283977 c 0.337358,0.143009 0.862476,-0.115279 0.775145,-0.523225 -0.145918,-0.497473 -0.970289,-0.497475 -1.116209,-2e-6 -0.0636,0.23988 0.128719,0.447618 0.341064,0.523227 z m 3.875732,-1.917196 c 1.069702,0.434082 2.139405,0.868164 3.209107,1.302246 -0.295734,0.396158 -0.866482,0.368049 -1.293405,0.239509 -0.876475,-0.260334 -1.71099,-0.639564 -2.563602,-0.966653 -0.132426,-0.04295 -0.265139,-0.124595 -0.397393,-0.144327 -0.549814,0.22297 -1.09134,0.477143 -1.667719,0.62213 -0.07324,0.232838 0.150307,0.589809 -0.07687,0.842328 -0.311347,0.532157 -1.113542,0.624698 -1.561273,0.213165 -0.384914,-0.301216 -0.379442,-0.940948 7e-6,-1.245402 0.216628,-0.191603 0.506973,-0.286636 0.794095,-0.258382 0.496639,0.01219 1.013014,-0.04849 1.453829,-0.289388 0.437126,-0.238777 0.07006,-0.726966 -0.300853,-0.765416 -0.420775,-0.157424 -0.870816,-0.155853 -1.312747,-0.158623 -0.527075,-0.0016 -1.039244,-0.509731 -0.904342,-1.051293 0.137956,-0.620793 0.952738,-0.891064 1.47649,-0.573851 0.371484,0.188118 0.594679,0.675747 0.390321,1.062196 0.09829,0.262762 0.586716,0.204086 0.826177,0.378204 0.301582,0.119237 0.600056,0.246109 0.899816,0.36981 0.89919,-0.349142 1.785653,-0.732692 2.698347,-1.045565 0.459138,-0.152333 1.033472,-0.283325 1.442046,0.05643 0.217451,0.135635 -0.06954,0.160294 -0.174725,0.220936 -0.979101,0.397316 -1.958202,0.794633 -2.937303,1.19195 z m -3.44165,-1.917196 c -0.338434,-0.14399 -0.861225,0.116943 -0.775146,0.524517 0.143274,0.477916 0.915235,0.499056 1.10329,0.04328 0.09674,-0.247849 -0.09989,-0.490324 -0.328144,-0.567796 z" style="fill:#000000;fill-opacity:1;fill-rule:nonzero;stroke:none" transform="scale(1.9) translate(24,0)" /><line fill="none" stroke="black" stroke-dasharray="2 2" x1="219.68503" x2="219.68503" y1="3.54331" y2="372.04724" /><path d="m 0.764814,4.283977 c 0.337358,0.143009 0.862476,-0.115279 0.775145,-0.523225 -0.145918,-0.497473 -0.970289,-0.497475 -1.116209,-2e-6 -0.0636,0.23988 0.128719,0.447618 0.341064,0.523227 z m 3.875732,-1.917196 c 1.069702,0.434082 2.139405,0.868164 3.209107,1.302246 -0.295734,0.396158 -0.866482,0.368049 -1.293405,0.239509 -0.876475,-0.260334 -1.71099,-0.639564 -2.563602,-0.966653 -0.132426,-0.04295 -0.265139,-0.124595 -0.397393,-0.144327 -0.549814,0.22297 -1.09134,0.477143 -1.667719,0.62213 -0.07324,0.232838 0.150307,0.589809 -0.07687,0.842328 -0.311347,0.532157 -1.113542,0.624698 -1.561273,0.213165 -0.384914,-0.301216 -0.379442,-0.940948 7e-6,-1.245402 0.216628,-0.191603 0.506973,-0.286636 0.794095,-0.258382 0.496639,0.01219 1.013014,-0.04849 1.453829,-0.289388 0.437126,-0.238777 0.07006,-0.726966 -0.300853,-0.765416 -0.420775,-0.157424 -0.870816,-0.155853 -1.312747,-0.158623 -0.527075,-0.0016 -1.039244,-0.509731 -0.904342,-1.051293 0.137956,-0.620793 0.952738,-0.891064 1.47649,-0.573851 0.371484,0.188118 0.594679,0.675747 0.390321,1.062196 0.09829,0.262762 0.586716,0.204086 0.826177,0.378204 0.301582,0.119237 0.600056,0.246109 0.899816,0.36981 0.89919,-0.349142 1.785653,-0.732692 2.698347,-1.045565 0.459138,-0.152333 1.033472,-0.283325 1.442046,0.05643 0.217451,0.135635 -0.06954,0.160294 -0.174725,0.220936 -0.979101,0.397316 -1.958202,0.794633 -2.937303,1.19195 z m -3.44165,-1.917196 c -0.338434,-0.14399 -0.861225,0.116943 -0.775146,0.524517 0.143274,0.477916 0.915235,0.499056 1.10329,0.04328 0.09674,-0.247849 -0.09989,-0.490324 -0.328144,-0.567796 z" style="fill:#000000;fill-opacity:1;fill-rule:nonzero;stroke:none" transform="scale(1.9) translate(118,40) rotate(90)" /><text font-family="Arial,Helvetica" font-size="10.2" font-weight="bold" x="237.40157" y="38.97638">Zahlteil</text><path d="M0,0H1V1H0zM1,0H2V1H1zM2,0H3V1H2zM3,0H4V1H3zM4,0H5V1H4zM5,0H6V1H5zM6,0H7V1H6zM9,0H10V1H9zM10,0H11V1H10zM11,0H12V1H11zM12,0H13V1H12zM13,0H14V1H13zM14,0H15V1H14zM16,0H17V1H16zM18,0H19V1H18zM20,0H21V1H20zM21,0H22V1H21zM24,0H25V1H24zM28,0H29V1H28zM31,0H32V1H31zM33,0H34V1H33zM36,0H37V1H36zM38,0H39V1H38zM39,0H40V1H39zM40,0H41V1H40zM45,0H46V1H45zM49,0H50V1H49zM51,0H52V1H51zM52,0H53V1H52zM54,0H55V1H54zM55,0H56V1H55zM56,0H57V1H56zM57,0H58V1H57zM58,0H59V1H58zM59,0H60V1H59zM60,0H61V1H60zM0,1H1V2H0zM6,1H7V2H6zM10,1H11V2H10zM12,1H13V2H12zM13,1H14V2H13zM14,1H15V2H14zM15,1H16V2H15zM18,1H19V2H18zM19,1H20V2H19zM25,1H26V2H25zM27,1H28V2H27zM28,1H29V2H28zM30,1H31V2H30zM35,1H36V2H35zM37,1H38V2H37zM51,1H52V2H51zM52,1H53V2H52zM54,1H55V2H54zM60,1H61V2H60zM0,2H1V3H0zM2,2H3V3H2zM3,2H4V3H3zM4,2H5V3H4zM6,2H7V3H6zM8,2H9V3H8zM9,2H10V3H9zM16,2H17V3H16zM19,2H20V3H19zM21,2H22V3H21zM24,2H25V3H24zM28,2H29V3H28zM29,2H30V3H29zM31,2H32V3H31zM34,2H35V3H34zM36,2H37V3H36zM37,2H38V3H37zM38,2H39V3H38zM41,2H42V3H41zM45,2H46V3H45zM50,2H51V3H50zM51,2H52V3H51zM52,2H53V3H52zM54,2H55V3H54zM56,2H57V3H56zM57,2H58V3H57zM58,2H59V3H58zM60,2H61V3H60zM0,3H1V4H0zM2,3H3V4H2zM3,3H4V4H3zM4,3H5V4H4zM6,3H7V4H6zM8,3H9V4H8zM9,3H10V4H9zM10,3H11V4H10zM11,3H12V4H11zM12,3H13V4H12zM13,3H14V4H13zM18,3H19V4H18zM19,3H20V4H19zM21,3H22V4H21zM22,3H23V4H22zM23,3H24V4H23zM25,3H26V4H25zM29,3H30V4H29zM30,3H31V4H30zM33,3H34V4H33zM34,3H35V4H34zM35,3H36V4H35zM36,3H37V4H36zM38,3H39V4H38zM39,3H40V4H39zM44,3H45V4H44zM45,3H46V4H45zM47,3H48V4H47zM48,3H49V4H48zM49,3H50V4H49zM50,3H51V4H50zM52,3H53V4H52zM54,3H55V4H54zM56,3H57V4H56zM57,3H58V4H57zM58,3H59V4H58zM60,3H61V4H60zM0,4H1V5H0zM2,4H3V5H2zM3,4H4V5H3zM4,4H5V5H4zM6,4H7V5H6zM8,4H9V5H8zM9,4H10V5H9zM10,4H11V5H10zM15,4H16V5H15zM21,4H22V5H21zM22,4H23V5H22zM23,4H24V5H23zM28,4H29V5H28zM29,4H30V5H29zM30,4H31V5H30zM31,4H32V5H31zM32,4H33V5H32zM34,4H35V5H34zM36,4H37V5H36zM37,4H38V5H37zM38,4H39V5H38zM39,4H40V5H39zM40,4H41V5H40zM41,4H42V5H41zM45,4H46V5H45zM46,4H47V5H46zM49,4H50V5H49zM50,4H51V5H50zM51,4H52V5H51zM54,4H55V5H54zM56,4H57V5H56zM57,4H58V5H57zM58,4H59V5H58zM60,4H61V5H60zM0,5H1V6H0zM6,5H7V6H6zM8,5H9V6H8zM9,5H10V6H9zM11,5H12V6H11zM12,5H13V6H12zM13,5H14V6H13zM19,5H20V6H19zM22,5H23V6H22zM24,5H25V6H24zM25,5H26V6H25zM28,5H29V6H28zM32,5H33V6H32zM33,5H34V6H33zM35,5H36V6H35zM42,5H43V6H42zM43,5H44V6H43zM45,5H46V6H45zM47,5H48V6H47zM50,5H51V6H50zM54,5H55V6H54zM60,5H61V6H60zM0,6H1V7H0zM1,6H2V7H1zM2,6H3V7H2zM3,6H4V7H3zM4,6H5V7H4zM5,6H6V7H5zM6,6H7V7H6zM8,6H9V7H8zM10,6H11V7H10zM12,6H13V7H12zM14,6H15V7H14zM16,6H17V7H16zM18,6H19V7H18zM20,6H21V7H20zM22,6H23V7H22zM24,6H25V7H24zM26,6H27V7H26zM28,6H29V7H28zM30,6H31V7H30zM32,6H33V7H32zM34,6H35V7H34zM36,6H37V7H36zM38,6H39V7H38zM40,6H41V7H40zM42,6H43V7H42zM44,6H45V7H44zM46,6H47V7H46zM48,6H49V7H48zM50,6H51V7H50zM52,6H53V7H52zM54,6H55V7H54zM55,6H56V7H55zM56,6H57V7H56zM57,6H58V7H57zM58,6H59V7H58zM59,6H60V7H59zM60,6H61V7H60zM8,7H9V8H8zM9,7H10V8H9zM12,7H13V8H12zM13,7H14V8H13zM16,7H17V8H16zM17,7H18V8H17zM18,7H19V8H18zM20,7H21V8H20zM23,7H24V8H23zM24,7H25V8H24zM26,7H27V8H26zM27,7H28V8H27zM28,7H29V8H28zM32,7H33V8H32zM33,7H34V8H33zM34,7H35V8H34zM37,7H38V8H37zM39,7H40V8H39zM40,7H41V8H40zM42,7H43V8H42zM45,7H46V8H45zM46,7H47V8H46zM48,7H49V8H48zM49,7H50V8H49zM50,7H51V8H50zM51,7H52V8H51zM0,8H1V9H0zM2,8H3V9H2zM3,8H4V9H3zM4,8H5V9H4zM5,8H6V9H5zM6,8H7V9H6zM11,8H12V9H11zM12,8H13V9H12zM14,8H15V9H14zM16,8H17V9H16zM20,8H21V9H20zM21,8H22V9H21zM24,8H25V9H24zM25,8H26V9H25zM26,8H27V9H26zM28,8H29V9H28zM29,8H30V9H29zM30,8H31V9H30zM31,8H32V9H31zM32,8H33V9H32zM33,8H34V9H33zM34,8H35V9H34zM35,8H36V9H35zM36,8H37V9H36zM38,8H39V9H38zM42,8H43V9H42zM43,8H44V9H43zM44,8H45V9H44zM45,8H46V9H45zM46,8H47V9H46zM47,8H48V9H47zM49,8H50V9H49zM54,8H55V9H54zM55,8H56V9H55zM56,8H57V9H56zM57,8H58V9H57zM58,8H59V9H58zM1,9H2V10H1zM2,9H3V10H2zM3,9H4V10H3zM4,9H5V10H4zM5,9H6V10H5zM7,9H8V10H7zM10,9H11V10H10zM15,9H16V10H15zM16,9H17V10H16zM18,9H19V10H18zM19,9H20V10H19zM21,9H22V10H21zM22,9H23V10H22zM24,9H25V10H24zM25,9H26V10H25zM27,9H28V10H27zM29,9H30V10H29zM30,9H31V10H30zM33,9H34V10H33zM36,9H37V10H36zM38,9H39V10H38zM39,9H40V10H39zM40,9H41V10H40zM45,9H46V10H45zM46,9H47V10H46zM48,9H49V10H48zM52,9H53V10H52zM59,9H60V10H59zM60,9H61V10H60zM0,10H1V11H0zM4,10H5V11H4zM6,10H7V11H6zM7,10H8V11H7zM8,10H9V11H8zM10,10H11V11H10zM12,10H13V11H12zM13,10H14V11H13zM14,10H15V11H14zM15,10H16V11H15zM17,10H18V11H17zM18,10H19V11H18zM20,10H21V11H20zM21,10H22V11H21zM25,10H26V11H25zM26,10H27V11H26zM29,10H30V11H29zM30,10H31V11H30zM31,10H32V11H31zM32,10H33V11H32zM36,10H37V11H36zM41,10H42V11H41zM43,10H44V11H43zM45,10H46V11H45zM47,10H48V11H47zM48,10H49V11H48zM51,10H52V11H51zM52,10H53V11H52zM54,10H55V11H54zM57,10H58V11H57zM58,10H59V11H58zM60,10H61V11H60zM0,11H1V12H0zM2,11H3V12H2zM3,11H4V12H3zM4,11H5V12H4zM8,11H9V12H8zM9,11H10V12H9zM11,11H12V12H11zM13,11H14V12H13zM14,11H15V12H14zM15,11H16V12H15zM16,11H17V12H16zM19,11H20V12H19zM21,11H22V12H21zM22,11H23V12H22zM23,11H24V12H23zM24,11H25V12H24zM28,11H29V12H28zM33,11H34V12H33zM35,11H36V12H35zM36,11H37V12H36zM37,11H38V12H37zM38,11H39V12H38zM42,11H43V12H42zM44,11H45V12H44zM45,11H46V12H45zM46,11H47V12H46zM51,11H52V12H51zM55,11H56V12H55zM56,11H57V12H56zM58,11H59V12H58zM60,11H61V12H60zM1,12H2V13H1zM2,12H3V13H2zM6,12H7V13H6zM7,12H8V13H7zM8,12H9V13H8zM11,12H12V13H11zM12,12H13V13H12zM13,12H14V13H13zM14,12H15V13H14zM15,12H16V13H15zM17,12H18V13H17zM18,12H19V13H18zM20,12H21V13H20zM22,12H23V13H22zM23,12H24V13H23zM25,12H26V13H25zM26,12H27V13H26zM27,12H28V13H27zM28,12H29V13H28zM30,12H31V13H30zM31,12H32V13H31zM32,12H33V13H32zM33,12H34V13H33zM36,12H37V13H36zM39,12H40V13H39zM43,12H44V13H43zM44,12H45V13H44zM45,12H46V13H45zM46,12H47V13H46zM48,12H49V13H48zM50,12H51V13H50zM57,12H58V13H57zM58,12H59V13H58zM59,12H60V13H59zM60,12H61V13H60zM0,13H1V14H0zM1,13H2V14H1zM2,13H3V14H2zM4,13H5V14H4zM5,13H6V14H5zM9,13H10V14H9zM10,13H11V14H10zM11,13H12V14H11zM12,13H13V14H12zM13,13H14V14H13zM14,13H15V14H14zM15,13H16V14H15zM22,13H23V14H22zM24,13H25V14H24zM27,13H28V14H27zM31,13H32V14H31zM36,13H37V14H36zM39,13H40V14H39zM40,13H41V14H40zM41,13H42V14H41zM43,13H44V14H43zM44,13H45V14H44zM46,13H47V14H46zM48,13H49V14H48zM49,13H50V14H49zM50,13H51V14H50zM51,13H52V14H51zM54,13H55V14H54zM56,13H57V14H56zM57,13H58V14H57zM60,13H61V14H60zM5,14H6V15H5zM6,14H7V15H6zM7,14H8V15H7zM8,14H9V15H8zM9,14H10V15H9zM10,14H11V15H10zM11,14H12V15H11zM14,14H15V15H14zM15,14H16V15H15zM16,14H17V15H16zM20,14H21V15H20zM22,14H23V15H22zM27,14H28V15H27zM34,14H35V15H34zM35,14H36V15H35zM36,14H37V15H36zM37,14H38V15H37zM39,14H40V15H39zM40,14H41V15H40zM44,14H45V15H44zM45,14H46V15H45zM46,14H47V15H46zM48,14H49V15H48zM51,14H52V15H51zM52,14H53V15H52zM53,14H54V15H53zM54,14H55V15H54zM56,14H57V15H56zM57,14H58V15H57zM59,14H60V15H59zM60,14H61V15H60zM2,15H3V16H2zM7,15H8V16H7zM9,15H10V16H9zM10,15H11V16H10zM11,15H12V16H11zM15,15H16V16H15zM16,15H17V16H16zM18,15H19V16H18zM20,15H21V16H20zM21,15H22V16H21zM22,15H23V16H22zM23,15H24V16H23zM24,15H25V16H24zM28,15H29V16H28zM30,15H31V16H30zM32,15H33V16H32zM33,15H34V16H33zM35,15H36V16H35zM36,15H37V16H36zM38,15H39V16H38zM41,15H42V16H41zM42,15H43V16H42zM43,15H44V16H43zM46,15H47V16H46zM49,15H50V16H49zM51,15H52V16H51zM52,15H53V16H52zM55,15H56V16H55zM58,15H59V16H58zM60,15H61V16H60zM0,16H1V17H0zM2,16H3V17H2zM3,16H4V17H3zM4,16H5V17H4zM5,16H6V17H5zM6,16H7V17H6zM8,16H9V17H8zM11,16H12V17H11zM12,16H13V17H12zM13,16H14V17H13zM14,16H15V17H14zM17,16H18V17H17zM18,16H19V17H18zM21,16H22V17H21zM22,16H23V17H22zM23,16H24V17H23zM24,16H25V17H24zM25,16H26V17H25zM26,16H27V17H26zM27,16H28V17H27zM28,16H29V17H28zM29,16H30V17H29zM30,16H31V17H30zM32,16H33V17H32zM33,16H34V17H33zM36,16H37V17H36zM38,16H39V17H38zM39,16H40V17H39zM45,16H46V17H45zM51,16H52V17H51zM55,16H56V17H55zM57,16H58V17H57zM58,16H59V17H58zM59,16H60V17H59zM1,17H2V18H1zM5,17H6V18H5zM7,17H8V18H7zM8,17H9V18H8zM10,17H11V18H10zM12,17H13V18H12zM14,17H15V18H14zM15,17H16V18H15zM16,17H17V18H16zM20,17H21V18H20zM24,17H25V18H24zM25,17H26V18H25zM27,17H28V18H27zM30,17H31V18H30zM31,17H32V18H31zM32,17H33V18H32zM33,17H34V18H33zM34,17H35V18H34zM35,17H36V18H35zM36,17H37V18H36zM43,17H44V18H43zM51,17H52V18H51zM52,17H53V18H52zM54,17H55V18H54zM57,17H58V18H57zM59,17H60V18H59zM60,17H61V18H60zM0,18H1V19H0zM1,18H2V19H1zM2,18H3V19H2zM4,18H5V19H4zM6,18H7V19H6zM8,18H9V19H8zM10,18H11V19H10zM12,18H13V19H12zM13,18H14V19H13zM14,18H15V19H14zM16,18H17V19H16zM17,18H18V19H17zM18,18H19V19H18zM19,18H20V19H19zM23,18H24V19H23zM24,18H25V19H24zM27,18H28V19H27zM28,18H29V19H28zM32,18H33V19H32zM36,18H37V19H36zM37,18H38V19H37zM39,18H40V19H39zM41,18H42V19H41zM42,18H43V19H42zM49,18H50V19H49zM51,18H52V19H51zM53,18H54V19H53zM54,18H55V19H54zM55,18H56V19H55zM58,18H59V19H58zM59,18H60V19H59zM60,18H61V19H60zM4,19H5V20H4zM10,19H11V20H10zM13,19H14V20H13zM14,19H15V20H14zM15,19H16V20H15zM16,19H17V20H16zM18,19H19V20H18zM20,19H21V20H20zM23,19H24V20H23zM24,19H25V20H24zM25,19H26V20H25zM28,19H29V20H28zM29,19H30V20H29zM33,19H34V20H33zM34,19H35V20H34zM35,19H36V20H35zM36,19H37V20H36zM39,19H40V20H39zM42,19H43V20H42zM47,19H48V20H47zM48,19H49V20H48zM49,19H50V20H49zM50,19H51V20H50zM53,19H54V20H53zM55,19H56V20H55zM1,20H2V21H1zM2,20H3V21H2zM3,20H4V21H3zM5,20H6V21H5zM6,20H7V21H6zM9,20H10V21H9zM13,20H14V21H13zM15,20H16V21H15zM16,20H17V21H16zM17,20H18V21H17zM18,20H19V21H18zM19,20H20V21H19zM20,20H21V21H20zM21,20H22V21H21zM22,20H23V21H22zM27,20H28V21H27zM28,20H29V21H28zM30,20H31V21H30zM31,20H32V21H31zM33,20H34V21H33zM34,20H35V21H34zM39,20H40V21H39zM40,20H41V21H40zM42,20H43V21H42zM43,20H44V21H43zM45,20H46V21H45zM48,20H49V21H48zM51,20H52V21H51zM54,20H55V21H54zM59,20H60V21H59zM0,21H1V22H0zM2,21H3V22H2zM4,21H5V22H4zM5,21H6V22H5zM7,21H8V22H7zM10,21H11V22H10zM11,21H12V22H11zM12,21H13V22H12zM14,21H15V22H14zM15,21H16V22H15zM16,21H17V22H16zM19,21H20V22H19zM20,21H21V22H20zM21,21H22V22H21zM22,21H23V22H22zM23,21H24V22H23zM24,21H25V22H24zM25,21H26V22H25zM27,21H28V22H27zM28,21H29V22H28zM29,21H30V22H29zM33,21H34V22H33zM39,21H40V22H39zM46,21H47V22H46zM48,21H49V22H48zM49,21H50V22H49zM51,21H52V22H51zM53,21H54V22H53zM54,21H55V22H54zM57,21H58V22H57zM59,21H60V22H59zM60,21H61V22H60zM1,22H2V23H1zM5,22H6V23H5zM6,22H7V23H6zM8,22H9V23H8zM9,22H10V23H9zM10,22H11V23H10zM13,22H14V23H13zM15,22H16V23H15zM16,22H17V23H16zM21,22H22V23H21zM22,22H23V23H22zM32,22H33V23H32zM35,22H36V23H35zM37,22H38V23H37zM41,22H42V23H41zM42,22H43V23H42zM43,22H44V23H43zM44,22H45V23H44zM51,22H52V23H51zM53,22H54V23H53zM55,22H56V23H55zM57,22H58V23H57zM59,22H60V23H59zM2,23H3V24H2zM7,23H8V24H7zM14,23H15V24H14zM15,23H16V24H15zM17,23H18V24H17zM19,23H20V24H19zM20,23H21V24H20zM22,23H23V24H22zM23,23H24V24H23zM27,23H28V24H27zM29,23H30V24H29zM33,23H34V24H33zM35,23H36V24H35zM36,23H37V24H36zM39,23H40V24H39zM40,23H41V24H40zM42,23H43V24H42zM43,23H44V24H43zM45,23H46V24H45zM46,23H47V24H46zM50,23H51V24H50zM51,23H52V24H51zM54,23H55V24H54zM55,23H56V24H55zM57,23H58V24H57zM58,23H59V24H58zM60,23H61V24H60zM0,24H1V25H0zM2,24H3V25H2zM3,24H4V25H3zM6,24H7V25H6zM10,24H11V25H10zM12,24H13V25H12zM13,24H14V25H13zM17,24H18V25H17zM18,24H19V25H18zM19,24H20V25H19zM21,24H22V25H21zM23,24H24V25H23zM24,24H25V25H24zM26,24H27V25H26zM30,24H31V25H30zM31,24H32V25H31zM35,24H36V25H35zM37,24H38V25H37zM39,24H40V25H39zM40,24H41V25H40zM41,24H42V25H41zM42,24H43V25H42zM45,24H46V25H45zM47,24H48V25H47zM48,24H49V25H48zM50,24H51V25H50zM52,24H53V25H52zM54,24H55V25H54zM57,24H58V25H57zM2,25H3V26H2zM4,25H5V26H4zM5,25H6V26H5zM10,25H11V26H10zM11,25H12V26H11zM13,25H14V26H13zM14,25H15V26H14zM16,25H17V26H16zM18,25H19V26H18zM19,25H20V26H19zM20,25H21V26H20zM24,25H25V26H24zM27,25H28V26H27zM29,25H30V26H29zM33,25H34V26H33zM39,25H40V26H39zM42,25H43V26H42zM44,25H45V26H44zM45,25H46V26H45zM48,25H49V26H48zM49,25H50V26H49zM54,25H55V26H54zM57,25H58V26H57zM58,25H59V26H58zM2,26H3V27H2zM3,26H4V27H3zM4,26H5V27H4zM6,26H7V27H6zM7,26H8V27H7zM8,26H9V27H8zM9,26H10V27H9zM10,26H11V27H10zM11,26H12V27H11zM12,26H13V27H12zM14,26H15V27H14zM15,26H16V27H15zM17,26H18V27H17zM18,26H19V27H18zM19,26H20V27H19zM20,26H21V27H20zM22,26H23V27H22zM23,26H24V27H23zM24,26H25V27H24zM27,26H28V27H27zM31,26H32V27H31zM32,26H33V27H32zM36,26H37V27H36zM37,26H38V27H37zM41,26H42V27H41zM42,26H43V27H42zM44,26H45V27H44zM45,26H46V27H45zM47,26H48V27H47zM48,26H49V27H48zM50,26H51V27H50zM51,26H52V27H51zM52,26H53V27H52zM53,26H54V27H53zM55,26H56V27H55zM57,26H58V27H57zM58,26H59V27H58zM59,26H60V27H59zM0,27H1V28H0zM2,27H3V28H2zM5,27H6V28H5zM9,27H10V28H9zM10,27H11V28H10zM11,27H12V28H11zM12,27H13V28H12zM18,27H19V28H18zM24,27H25V28H24zM28,27H29V28H28zM29,27H30V28H29zM32,27H33V28H32zM35,27H36V28H35zM39,27H40V28H39zM40,27H41V28H40zM41,27H42V28H41zM44,27H45V28H44zM45,27H46V28H45zM46,27H47V28H46zM48,27H49V28H48zM50,27H51V28H50zM51,27H52V28H51zM54,27H55V28H54zM57,27H58V28H57zM1,28H2V29H1zM3,28H4V29H3zM4,28H5V29H4zM5,28H6V29H5zM6,28H7V29H6zM7,28H8V29H7zM8,28H9V29H8zM10,28H11V29H10zM13,28H14V29H13zM14,28H15V29H14zM15,28H16V29H15zM16,28H17V29H16zM17,28H18V29H17zM20,28H21V29H20zM24,28H25V29H24zM27,28H28V29H27zM28,28H29V29H28zM29,28H30V29H29zM30,28H31V29H30zM31,28H32V29H31zM32,28H33V29H32zM33,28H34V29H33zM35,28H36V29H35zM36,28H37V29H36zM42,28H43V29H42zM43,28H44V29H43zM44,28H45V29H44zM46,28H47V29H46zM47,28H48V29H47zM50,28H51V29H50zM52,28H53V29H52zM53,28H54V29H53zM54,28H55V29H54zM55,28H56V29H55zM56,28H57V29H56zM60,28H61V29H60zM1,29H2V30H1zM2,29H3V30H2zM4,29H5V30H4zM8,29H9V30H8zM11,29H12V30H11zM12,29H13V30H12zM13,29H14V30H13zM15,29H16V30H15zM16,29H17V30H16zM17,29H18V30H17zM19,29H20V30H19zM22,29H23V30H22zM25,29H26V30H25zM27,29H28V30H27zM28,29H29V30H28zM32,29H33V30H32zM33,29H34V30H33zM34,29H35V30H34zM36,29H37V30H36zM39,29H40V30H39zM41,29H42V30H41zM42,29H43V30H42zM51,29H52V30H51zM52,29H53V30H52zM56,29H57V30H56zM59,29H60V30H59zM60,29H61V30H60zM0,30H1V31H0zM1,30H2V31H1zM2,30H3V31H2zM4,30H5V31H4zM6,30H7V31H6zM8,30H9V31H8zM9,30H10V31H9zM11,30H12V31H11zM13,30H14V31H13zM14,30H15V31H14zM17,30H18V31H17zM18,30H19V31H18zM20,30H21V31H20zM21,30H22V31H21zM23,30H24V31H23zM24,30H25V31H24zM26,30H27V31H26zM28,30H29V31H28zM30,30H31V31H30zM32,30H33V31H32zM33,30H34V31H33zM34,30H35V31H34zM35,30H36V31H35zM36,30H37V31H36zM39,30H40V31H39zM41,30H42V31H41zM44,30H45V31H44zM45,30H46V31H45zM47,30H48V31H47zM48,30H49V31H48zM49,30H50V31H49zM50,30H51V31H50zM52,30H53V31H52zM54,30H55V31H54zM56,30H57V31H56zM57,30H58V31H57zM58,30H59V31H58zM60,30H61V31H60zM2,31H3V32H2zM3,31H4V32H3zM4,31H5V32H4zM8,31H9V32H8zM9,31H10V32H9zM14,31H15V32H14zM23,31H24V32H23zM24,31H25V32H24zM26,31H27V32H26zM27,31H28V32H27zM28,31H29V32H28zM32,31H33V32H32zM33,31H34V32H33zM35,31H36V32H35zM38,31H39V32H38zM39,31H40V32H39zM41,31H42V32H41zM42,31H43V32H42zM50,31H51V32H50zM52,31H53V32H52zM56,31H57V32H56zM58,31H59V32H58zM2,32H3V33H2zM4,32H5V33H4zM5,32H6V33H5zM6,32H7V33H6zM7,32H8V33H7zM8,32H9V33H8zM15,32H16V33H15zM21,32H22V33H21zM22,32H23V33H22zM25,32H26V33H25zM28,32H29V33H28zM29,32H30V33H29zM30,32H31V33H30zM31,32H32V33H31zM32,32H33V33H32zM33,32H34V33H33zM34,32H35V33H34zM35,32H36V33H35zM36,32H37V33H36zM38,32H39V33H38zM40,32H41V33H40zM45,32H46V33H45zM48,32H49V33H48zM51,32H52V33H51zM52,32H53V33H52zM53,32H54V33H53zM54,32H55V33H54zM55,32H56V33H55zM56,32H57V33H56zM57,32H58V33H57zM0,33H1V34H0zM3,33H4V34H3zM5,33H6V34H5zM7,33H8V34H7zM8,33H9V34H8zM9,33H10V34H9zM12,33H13V34H12zM14,33H15V34H14zM15,33H16V34H15zM16,33H17V34H16zM19,33H20V34H19zM22,33H23V34H22zM23,33H24V34H23zM27,33H28V34H27zM28,33H29V34H28zM29,33H30V34H29zM30,33H31V34H30zM31,33H32V34H31zM32,33H33V34H32zM35,33H36V34H35zM36,33H37V34H36zM41,33H42V34H41zM46,33H47V34H46zM49,33H50V34H49zM50,33H51V34H50zM55,33H56V34H55zM60,33H61V34H60zM0,34H1V35H0zM2,34H3V35H2zM4,34H5V35H4zM5,34H6V35H5zM6,34H7V35H6zM8,34H9V35H8zM12,34H13V35H12zM13,34H14V35H13zM16,34H17V35H16zM18,34H19V35H18zM19,34H20V35H19zM24,34H25V35H24zM26,34H27V35H26zM29,34H30V35H29zM30,34H31V35H30zM31,34H32V35H31zM34,34H35V35H34zM36,34H37V35H36zM37,34H38V35H37zM39,34H40V35H39zM45,34H46V35H45zM49,34H50V35H49zM52,34H53V35H52zM57,34H58V35H57zM59,34H60V35H59zM60,34H61V35H60zM0,35H1V36H0zM4,35H5V36H4zM5,35H6V36H5zM16,35H17V36H16zM18,35H19V36H18zM19,35H20V36H19zM20,35H21V36H20zM21,35H22V36H21zM29,35H30V36H29zM32,35H33V36H32zM34,35H35V36H34zM36,35H37V36H36zM37,35H38V36H37zM39,35H40V36H39zM42,35H43V36H42zM46,35H47V36H46zM48,35H49V36H48zM50,35H51V36H50zM51,35H52V36H51zM54,35H55V36H54zM56,35H57V36H56zM60,35H61V36H60zM0,36H1V37H0zM1,36H2V37H1zM3,36H4V37H3zM4,36H5V37H4zM6,36H7V37H6zM7,36H8V37H7zM8,36H9V37H8zM9,36H10V37H9zM11,36H12V37H11zM13,36H14V37H13zM14,36H15V37H14zM16,36H17V37H16zM19,36H20V37H19zM20,36H21V37H20zM21,36H22V37H21zM23,36H24V37H23zM24,36H25V37H24zM25,36H26V37H25zM26,36H27V37H26zM28,36H29V37H28zM29,36H30V37H29zM30,36H31V37H30zM33,36H34V37H33zM35,36H36V37H35zM40,36H41V37H40zM42,36H43V37H42zM43,36H44V37H43zM44,36H45V37H44zM45,36H46V37H45zM50,36H51V37H50zM51,36H52V37H51zM53,36H54V37H53zM54,36H55V37H54zM60,36H61V37H60zM0,37H1V38H0zM1,37H2V38H1zM3,37H4V38H3zM4,37H5V38H4zM5,37H6V38H5zM8,37H9V38H8zM9,37H10V38H9zM13,37H14V38H13zM14,37H15V38H14zM18,37H19V38H18zM20,37H21V38H20zM21,37H22V38H21zM22,37H23V38H22zM27,37H28V38H27zM28,37H29V38H28zM29,37H30V38H29zM31,37H32V38H31zM34,37H35V38H34zM37,37H38V38H37zM38,37H39V38H38zM39,37H40V38H39zM40,37H41V38H40zM44,37H45V38H44zM48,37H49V38H48zM51,37H52V38H51zM52,37H53V38H52zM54,37H55V38H54zM57,37H58V38H57zM60,37H61V38H60zM6,38H7V39H6zM7,38H8V39H7zM9,38H10V39H9zM12,38H13V39H12zM13,38H14V39H13zM15,38H16V39H15zM16,38H17V39H16zM17,38H18V39H17zM18,38H19V39H18zM21,38H22V39H21zM25,38H26V39H25zM26,38H27V39H26zM29,38H30V39H29zM30,38H31V39H30zM33,38H34V39H33zM35,38H36V39H35zM37,38H38V39H37zM40,38H41V39H40zM42,38H43V39H42zM43,38H44V39H43zM44,38H45V39H44zM45,38H46V39H45zM46,38H47V39H46zM47,38H48V39H47zM48,38H49V39H48zM49,38H50V39H49zM51,38H52V39H51zM52,38H53V39H52zM54,38H55V39H54zM55,38H56V39H55zM57,38H58V39H57zM60,38H61V39H60zM2,39H3V40H2zM3,39H4V40H3zM5,39H6V40H5zM8,39H9V40H8zM9,39H10V40H9zM10,39H11V40H10zM12,39H13V40H12zM13,39H14V40H13zM17,39H18V40H17zM19,39H20V40H19zM20,39H21V40H20zM22,39H23V40H22zM23,39H24V40H23zM24,39H25V40H24zM26,39H27V40H26zM27,39H28V40H27zM28,39H29V40H28zM30,39H31V40H30zM31,39H32V40H31zM32,39H33V40H32zM35,39H36V40H35zM36,39H37V40H36zM38,39H39V40H38zM43,39H44V40H43zM51,39H52V40H51zM53,39H54V40H53zM54,39H55V40H54zM55,39H56V40H55zM56,39H57V40H56zM60,39H61V40H60zM2,40H3V41H2zM3,40H4V41H3zM4,40H5V41H4zM6,40H7V41H6zM7,40H8V41H7zM8,40H9V41H8zM9,40H10V41H9zM10,40H11V41H10zM12,40H13V41H12zM14,40H15V41H14zM16,40H17V41H16zM17,40H18V41H17zM18,40H19V41H18zM19,40H20V41H19zM21,40H22V41H21zM24,40H25V41H24zM25,40H26V41H25zM26,40H27V41H26zM27,40H28V41H27zM29,40H30V41H29zM32,40H33V41H32zM33,40H34V41H33zM38,40H39V41H38zM39,40H40V41H39zM42,40H43V41H42zM43,40H44V41H43zM44,40H45V41H44zM45,40H46V41H45zM46,40H47V41H46zM47,40H48V41H47zM51,40H52V41H51zM53,40H54V41H53zM54,40H55V41H54zM56,40H57V41H56zM57,40H58V41H57zM60,40H61V41H60zM0,41H1V42H0zM2,41H3V42H2zM3,41H4V42H3zM4,41H5V42H4zM7,41H8V42H7zM10,41H11V42H10zM13,41H14V42H13zM15,41H16V42H15zM17,41H18V42H17zM20,41H21V42H20zM22,41H23V42H22zM23,41H24V42H23zM27,41H28V42H27zM28,41H29V42H28zM29,41H30V42H29zM30,41H31V42H30zM32,41H33V42H32zM33,41H34V42H33zM36,41H37V42H36zM39,41H40V42H39zM40,41H41V42H40zM44,41H45V42H44zM46,41H47V42H46zM48,41H49V42H48zM50,41H51V42H50zM54,41H55V42H54zM55,41H56V42H55zM56,41H57V42H56zM59,41H60V42H59zM0,42H1V43H0zM2,42H3V43H2zM3,42H4V43H3zM4,42H5V43H4zM6,42H7V43H6zM10,42H11V43H10zM12,42H13V43H12zM14,42H15V43H14zM15,42H16V43H15zM16,42H17V43H16zM17,42H18V43H17zM20,42H21V43H20zM21,42H22V43H21zM22,42H23V43H22zM26,42H27V43H26zM29,42H30V43H29zM30,42H31V43H30zM31,42H32V43H31zM35,42H36V43H35zM37,42H38V43H37zM39,42H40V43H39zM40,42H41V43H40zM41,42H42V43H41zM45,42H46V43H45zM47,42H48V43H47zM48,42H49V43H48zM49,42H50V43H49zM52,42H53V43H52zM53,42H54V43H53zM57,42H58V43H57zM59,42H60V43H59zM60,42H61V43H60zM2,43H3V44H2zM3,43H4V44H3zM4,43H5V44H4zM8,43H9V44H8zM9,43H10V44H9zM11,43H12V44H11zM12,43H13V44H12zM13,43H14V44H13zM14,43H15V44H14zM16,43H17V44H16zM17,43H18V44H17zM18,43H19V44H18zM19,43H20V44H19zM20,43H21V44H20zM23,43H24V44H23zM26,43H27V44H26zM27,43H28V44H27zM34,43H35V44H34zM35,43H36V44H35zM36,43H37V44H36zM37,43H38V44H37zM38,43H39V44H38zM41,43H42V44H41zM43,43H44V44H43zM46,43H47V44H46zM47,43H48V44H47zM48,43H49V44H48zM49,43H50V44H49zM53,43H54V44H53zM54,43H55V44H54zM55,43H56V44H55zM56,43H57V44H56zM58,43H59V44H58zM59,43H60V44H59zM0,44H1V45H0zM1,44H2V45H1zM2,44H3V45H2zM6,44H7V45H6zM12,44H13V45H12zM14,44H15V45H14zM15,44H16V45H15zM19,44H20V45H19zM22,44H23V45H22zM24,44H25V45H24zM25,44H26V45H25zM26,44H27V45H26zM29,44H30V45H29zM32,44H33V45H32zM33,44H34V45H33zM34,44H35V45H34zM35,44H36V45H35zM38,44H39V45H38zM39,44H40V45H39zM45,44H46V45H45zM46,44H47V45H46zM48,44H49V45H48zM50,44H51V45H50zM51,44H52V45H51zM53,44H54V45H53zM54,44H55V45H54zM55,44H56V45H55zM57,44H58V45H57zM59,44H60V45H59zM60,44H61V45H60zM0,45H1V46H0zM1,45H2V46H1zM3,45H4V46H3zM8,45H9V46H8zM9,45H10V46H9zM11,45H12V46H11zM12,45H13V46H12zM16,45H17V46H16zM18,45H19V46H18zM22,45H23V46H22zM23,45H24V46H23zM25,45H26V46H25zM27,45H28V46H27zM28,45H29V46H28zM29,45H30V46H29zM30,45H31V46H30zM32,45H33V46H32zM34,45H35V46H34zM37,45H38V46H37zM38,45H39V46H38zM39,45H40V46H39zM40,45H41V46H40zM41,45H42V46H41zM46,45H47V46H46zM51,45H52V46H51zM54,45H55V46H54zM60,45H61V46H60zM0,46H1V47H0zM1,46H2V47H1zM3,46H4V47H3zM5,46H6V47H5zM6,46H7V47H6zM7,46H8V47H7zM9,46H10V47H9zM10,46H11V47H10zM11,46H12V47H11zM12,46H13V47H12zM13,46H14V47H13zM15,46H16V47H15zM19,46H20V47H19zM22,46H23V47H22zM26,46H27V47H26zM30,46H31V47H30zM31,46H32V47H31zM33,46H34V47H33zM39,46H40V47H39zM40,46H41V47H40zM42,46H43V47H42zM45,46H46V47H45zM49,46H50V47H49zM51,46H52V47H51zM53,46H54V47H53zM54,46H55V47H54zM56,46H57V47H56zM57,46H58V47H57zM59,46H60V47H59zM1,47H2V48H1zM2,47H3V48H2zM3,47H4V48H3zM4,47H5V48H4zM5,47H6V48H5zM10,47H11V48H10zM11,47H12V48H11zM15,47H16V48H15zM19,47H20V48H19zM20,47H21V48H20zM22,47H23V48H22zM26,47H27V48H26zM28,47H29V48H28zM29,47H30V48H29zM30,47H31V48H30zM35,47H36V48H35zM36,47H37V48H36zM38,47H39V48H38zM39,47H40V48H39zM42,47H43V48H42zM44,47H45V48H44zM45,47H46V48H45zM52,47H53V48H52zM54,47H55V48H54zM56,47H57V48H56zM57,47H58V48H57zM60,47H61V48H60zM0,48H1V49H0zM3,48H4V49H3zM4,48H5V49H4zM6,48H7V49H6zM7,48H8V49H7zM10,48H11V49H10zM13,48H14V49H13zM14,48H15V49H14zM16,48H17V49H16zM19,48H20V49H19zM20,48H21V49H20zM21,48H22V49H21zM28,48H29V49H28zM30,48H31V49H30zM32,48H33V49H32zM33,48H34V49H33zM34,48H35V49H34zM36,48H37V49H36zM37,48H38V49H37zM41,48H42V49H41zM42,48H43V49H42zM43,48H44V49H43zM44,48H45V49H44zM45,48H46V49H45zM46,48H47V49H46zM47,48H48V49H47zM49,48H50V49H49zM51,48H52V49H51zM54,48H55V49H54zM55,48H56V49H55zM59,48H60V49H59zM60,48H61V49H60zM1,49H2V50H1zM4,49H5V50H4zM5,49H6V50H5zM7,49H8V50H7zM11,49H12V50H11zM13,49H14V50H13zM14,49H15V50H14zM16,49H17V50H16zM19,49H20V50H19zM22,49H23V50H22zM23,49H24V50H23zM25,49H26V50H25zM28,49H29V50H28zM29,49H30V50H29zM30,49H31V50H30zM32,49H33V50H32zM33,49H34V50H33zM38,49H39V50H38zM39,49H40V50H39zM40,49H41V50H40zM42,49H43V50H42zM44,49H45V50H44zM46,49H47V50H46zM51,49H52V50H51zM57,49H58V50H57zM58,49H59V50H58zM59,49H60V50H59zM60,49H61V50H60zM2,50H3V51H2zM3,50H4V51H3zM4,50H5V51H4zM5,50H6V51H5zM6,50H7V51H6zM8,50H9V51H8zM9,50H10V51H9zM11,50H12V51H11zM14,50H15V51H14zM15,50H16V51H15zM16,50H17V51H16zM19,50H20V51H19zM21,50H22V51H21zM31,50H32V51H31zM38,50H39V51H38zM39,50H40V51H39zM40,50H41V51H40zM41,50H42V51H41zM42,50H43V51H42zM43,50H44V51H43zM48,50H49V51H48zM51,50H52V51H51zM54,50H55V51H54zM56,50H57V51H56zM57,50H58V51H57zM58,50H59V51H58zM60,50H61V51H60zM0,51H1V52H0zM1,51H2V52H1zM2,51H3V52H2zM4,51H5V52H4zM7,51H8V52H7zM8,51H9V52H8zM9,51H10V52H9zM10,51H11V52H10zM12,51H13V52H12zM13,51H14V52H13zM16,51H17V52H16zM19,51H20V52H19zM21,51H22V52H21zM23,51H24V52H23zM24,51H25V52H24zM27,51H28V52H27zM30,51H31V52H30zM33,51H34V52H33zM36,51H37V52H36zM37,51H38V52H37zM40,51H41V52H40zM41,51H42V52H41zM42,51H43V52H42zM46,51H47V52H46zM48,51H49V52H48zM50,51H51V52H50zM51,51H52V52H51zM52,51H53V52H52zM53,51H54V52H53zM56,51H57V52H56zM57,51H58V52H57zM60,51H61V52H60zM0,52H1V53H0zM1,52H2V53H1zM2,52H3V53H2zM3,52H4V53H3zM6,52H7V53H6zM7,52H8V53H7zM8,52H9V53H8zM9,52H10V53H9zM10,52H11V53H10zM12,52H13V53H12zM13,52H14V53H13zM14,52H15V53H14zM24,52H25V53H24zM26,52H27V53H26zM27,52H28V53H27zM28,52H29V53H28zM29,52H30V53H29zM30,52H31V53H30zM31,52H32V53H31zM32,52H33V53H32zM33,52H34V53H33zM36,52H37V53H36zM39,52H40V53H39zM40,52H41V53H40zM45,52H46V53H45zM46,52H47V53H46zM48,52H49V53H48zM52,52H53V53H52zM53,52H54V53H53zM54,52H55V53H54zM55,52H56V53H55zM56,52H57V53H56zM60,52H61V53H60zM8,53H9V54H8zM11,53H12V54H11zM12,53H13V54H12zM13,53H14V54H13zM14,53H15V54H14zM15,53H16V54H15zM16,53H17V54H16zM17,53H18V54H17zM18,53H19V54H18zM21,53H22V54H21zM22,53H23V54H22zM26,53H27V54H26zM27,53H28V54H27zM28,53H29V54H28zM32,53H33V54H32zM33,53H34V54H33zM36,53H37V54H36zM39,53H40V54H39zM40,53H41V54H40zM41,53H42V54H41zM46,53H47V54H46zM47,53H48V54H47zM48,53H49V54H48zM49,53H50V54H49zM50,53H51V54H50zM51,53H52V54H51zM52,53H53V54H52zM56,53H57V54H56zM57,53H58V54H57zM58,53H59V54H58zM60,53H61V54H60zM0,54H1V55H0zM1,54H2V55H1zM2,54H3V55H2zM3,54H4V55H3zM4,54H5V55H4zM5,54H6V55H5zM6,54H7V55H6zM9,54H10V55H9zM14,54H15V55H14zM15,54H16V55H15zM17,54H18V55H17zM18,54H19V55H18zM20,54H21V55H20zM21,54H22V55H21zM24,54H25V55H24zM25,54H26V55H25zM26,54H27V55H26zM27,54H28V55H27zM28,54H29V55H28zM30,54H31V55H30zM32,54H33V55H32zM37,54H38V55H37zM42,54H43V55H42zM45,54H46V55H45zM46,54H47V55H46zM47,54H48V55H47zM49,54H50V55H49zM52,54H53V55H52zM54,54H55V55H54zM56,54H57V55H56zM57,54H58V55H57zM58,54H59V55H58zM59,54H60V55H59zM60,54H61V55H60zM0,55H1V56H0zM6,55H7V56H6zM8,55H9V56H8zM12,55H13V56H12zM13,55H14V56H13zM14,55H15V56H14zM17,55H18V56H17zM18,55H19V56H18zM19,55H20V56H19zM21,55H22V56H21zM23,55H24V56H23zM24,55H25V56H24zM26,55H27V56H26zM28,55H29V56H28zM32,55H33V56H32zM33,55H34V56H33zM35,55H36V56H35zM36,55H37V56H36zM37,55H38V56H37zM41,55H42V56H41zM43,55H44V56H43zM47,55H48V56H47zM48,55H49V56H48zM49,55H50V56H49zM52,55H53V56H52zM56,55H57V56H56zM57,55H58V56H57zM58,55H59V56H58zM0,56H1V57H0zM2,56H3V57H2zM3,56H4V57H3zM4,56H5V57H4zM6,56H7V57H6zM8,56H9V57H8zM9,56H10V57H9zM10,56H11V57H10zM11,56H12V57H11zM12,56H13V57H12zM15,56H16V57H15zM16,56H17V57H16zM18,56H19V57H18zM25,56H26V57H25zM26,56H27V57H26zM28,56H29V57H28zM29,56H30V57H29zM30,56H31V57H30zM31,56H32V57H31zM32,56H33V57H32zM33,56H34V57H33zM34,56H35V57H34zM36,56H37V57H36zM38,56H39V57H38zM39,56H40V57H39zM42,56H43V57H42zM45,56H46V57H45zM48,56H49V57H48zM51,56H52V57H51zM52,56H53V57H52zM53,56H54V57H53zM54,56H55V57H54zM55,56H56V57H55zM56,56H57V57H56zM59,56H60V57H59zM60,56H61V57H60zM0,57H1V58H0zM2,57H3V58H2zM3,57H4V58H3zM4,57H5V58H4zM6,57H7V58H6zM8,57H9V58H8zM9,57H10V58H9zM13,57H14V58H13zM15,57H16V58H15zM20,57H21V58H20zM22,57H23V58H22zM23,57H24V58H23zM27,57H28V58H27zM28,57H29V58H28zM29,57H30V58H29zM31,57H32V58H31zM34,57H35V58H34zM35,57H36V58H35zM36,57H37V58H36zM37,57H38V58H37zM38,57H39V58H38zM42,57H43V58H42zM43,57H44V58H43zM53,57H54V58H53zM57,57H58V58H57zM60,57H61V58H60zM0,58H1V59H0zM2,58H3V59H2zM3,58H4V59H3zM4,58H5V59H4zM6,58H7V59H6zM8,58H9V59H8zM10,58H11V59H10zM11,58H12V59H11zM12,58H13V59H12zM14,58H15V59H14zM15,58H16V59H15zM19,58H20V59H19zM20,58H21V59H20zM30,58H31V59H30zM36,58H37V59H36zM39,58H40V59H39zM41,58H42V59H41zM42,58H43V59H42zM45,58H46V59H45zM46,58H47V59H46zM49,58H50V59H49zM51,58H52V59H51zM55,58H56V59H55zM56,58H57V59H56zM58,58H59V59H58zM60,58H61V59H60zM0,59H1V60H0zM6,59H7V60H6zM10,59H11V60H10zM11,59H12V60H11zM12,59H13V60H12zM13,59H14V60H13zM14,59H15V60H14zM15,59H16V60H15zM16,59H17V60H16zM17,59H18V60H17zM18,59H19V60H18zM19,59H20V60H19zM20,59H21V60H20zM24,59H25V60H24zM25,59H26V60H25zM27,59H28V60H27zM28,59H29V60H28zM31,59H32V60H31zM33,59H34V60H33zM34,59H35V60H34zM35,59H36V60H35zM36,59H37V60H36zM37,59H38V60H37zM41,59H42V60H41zM42,59H43V60H42zM43,59H44V60H43zM45,59H46V60H45zM46,59H47V60H46zM49,59H50V60H49zM50,59H51V60H50zM51,59H52V60H51zM52,59H53V60H52zM54,59H55V60H54zM56,59H57V60H56zM57,59H58V60H57zM60,59H61V60H60zM0,60H1V61H0zM1,60H2V61H1zM2,60H3V61H2zM3,60H4V61H3zM4,60H5V61H4zM5,60H6V61H5zM6,60H7V61H6zM8,60H9V61H8zM9,60H10V61H9zM10,60H11V61H10zM11,60H12V61H11zM12,60H13V61H12zM15,60H16V61H15zM16,60H17V61H16zM17,60H18V61H17zM18,60H19V61H18zM20,60H21V61H20zM21,60H22V61H21zM22,60H23V61H22zM23,60H24V61H23zM24,60H25V61H24zM28,60H29V61H28zM30,60H31V61H30zM33,60H34V61H33zM34,60H35V61H34zM39,60H40V61H39zM42,60H43V61H42zM43,60H44V61H43zM44,60H45V61H44zM45,60H46V61H45zM46,60H47V61H46zM47,60H48V61H47zM50,60H51V61H50zM51,60H52V61H51zM52,60H53V61H52zM53,60H54V61H53zM54,60H55V61H54zM57,60H58V61H57zM59,60H60V61H59zM60,60H61V61H60z" style="fill:#000000;fill-opacity:1;fill-rule:nonzero;stroke:none" transform="translate(237.40157,61) scale(2.6603845901639342)" /><g id="swiss-cross" transform="translate(305.4890105263158,129.0874405263158) scale(1.305428947368421)"><polygon fill="black" points="18.3,0.7 1.6,0.7 0.7,0.7 0.7,1.6 0.7,18.3 0.7,19.1 1.6,19.1 18.3,19.1 19.1,19.1 19.1,18.3 19.1,1.6 19.1,0.7" /><rect fill="white" height="11" width="3.3" x="8.3" y="4" /><rect fill="white" height="3.3" width="11" x="4.4" y="7.9" /><polygon fill="none" points="0.7,1.6 0.7,18.3 0.7,19.1 1.6,19.1 18.3,19.1 19.1,19.1 19.1,18.3 19.1,1.6 19.1,0.7 18.3,0.7 1.6,0.7 0.7,0.7" stroke="white" stroke-width="1.4357" /></g><text font-family="Arial,Helvetica" font-size="7.6499999999999995" font-weight="bold" x="237.40157" y="258.66141">Währung</text><text font-family="Arial,Helvetica" font-size="7.6499999999999995" font-weight="bold" x="279.92125" y="258.66141">Betrag</text><text font-family="Arial,Helvetica" font-size="8.5" x="237.40157" y="276.37795">CHF</text><text font-family="Arial,Helvetica" font-size="8.5" x="279.92125" y="276.37795">76.20</text><text font-family="Arial,Helvetica" font-size="7.6499999999999995" font-weight="bold" x="418.11023" y="38.97638">Konto / Zahlbar an</text><text font-family="Arial,Helvetica" font-size="8.5" x="418.11023" y="51.37795">CH20 0025 1251 8354 2001 D</text><text font-family="Arial,Helvetica" font-size="8.5" x="418.11023" y="63.77953">Dolder Eis &amp; Bad AG</text><text font-family="Arial,Helvetica" font-size="8.5" x="418.11023" y="76.1811">Adlisbergstrasse 36</text><text font-family="Arial,Helvetica" font-size="8.5" x="418.11023" y="88.58267">CH-8098 Zürich</text><text font-family="Arial,Helvetica" font-size="7.6499999999999995" font-weight="bold" x="418.11023" y="111.61417">Zusätzliche Informationen</text><text font-family="Arial,Helvetica" font-size="8.5" x="418.11023" y="124.01574">Nachzahlgebühr-Nr.: 1953</text><text font-family="Arial,Helvetica" font-size="7.6499999999999995" font-weight="bold" x="418.11023" y="147.04724">Zahlbar durch</text><text font-family="Arial,Helvetica" font-size="8.5" x="418.11023" y="159.44881">kein Name</text><text font-family="Arial,Helvetica" font-size="8.5" x="418.11023" y="171.85039">keine Strasse</text><text font-family="Arial,Helvetica" font-size="8.5" x="418.11023" y="184.25196">CH-kein Ort kein PLZ</text></g></svg>