<?xml version="1.0" encoding="utf-8" ?>
<svg baseProfile="full" height="106mm" version="1.1" viewBox="0 0 744.094470 375.590540" width="210mm" xmlns="http://www.w3.org/2000/svg" xmlns:ev="http://www.w3.org/2001/xml-events" xmlns:xlink="http://www.w3.org/1999/xlink"><defs /><rect fill="white" height="100%" width="100%" x="0" y="0" /><g><text font-family="Arial,Helvetica" font-size="10.2" font-weight="bold" x="17.71654" y="38.97638">Empfangsschein</text><text font-family="Arial,Helvetica" font-size="6.8" font-weight="bold" x="17.71654" y="56.69291">Konto / Zahlbar an</text><text font-family="Arial,Helvetica" font-size="8.5" x="17.71654" y="69.09449">CH20 0025 1251 8354 2001 D</text><text font-family="Arial,Helvetica" font-size="8.5" x="17.71654" y="81.49606">Dolder Eis &amp; Bad AG</text><text font-family="Arial,Helvetica" font-size="8.5" x="17.71654" y="93.89764">Adlisbergstrasse 36</text><text font-family="Arial,Helvetica" font-size="8.5" x="17.71654" y="106.29921">CH-8098 Zürich</text><text font-family="Arial,Helvetica" font-size="6.8" font-weight="bold" x="17.71654" y="122.24409">Zahlbar durch</text><text font-family="Arial,Helvetica" font-size="8.5" x="17.71654" y="134.64567">Ahmed</text><text font-family="Arial,Helvetica" font-size="8.5" x="17.71654" y="147.04724">down town 23,billboard</text><text font-family="Arial,Helvetica" font-size="8.5" x="17.71654" y="159.44881">CH-Karchi 123</text><text font-family="Arial,Helvetica" font-size="6.8" font-weight="bold" x="17.71654" y="258.66141">Währung</text><text font-family="Arial,Helvetica" font-size="6.8" font-weight="bold" x="60.23622" y="258.66141">Betrag</text><text font-family="Arial,Helvetica" font-size="8.5" x="17.71654" y="276.37795">CHF</text><text font-family="Arial,Helvetica" font-size="8.5" x="60.23622" y="276.37795">133.00</text><text font-family="Arial,Helvetica" font-size="6.8" font-weight="bold" text-anchor="end" x="201.96849" y="308.26771">Annahmestelle</text><line fill="none" stroke="black" stroke-dasharray="2 2" x1="0" x2="744.09447" y1="4.04291" y2="4.04291" /><path d="m 0.764814,4.283977 c 0.337358,0.143009 0.862476,-0.115279 0.775145,-0.523225 -0.145918,-0.497473 -0.970289,-0.497475 -1.116209,-2e-6 -0.0636,0.23988 0.128719,0.447618 0.341064,0.523227 z m 3.875732,-1.917196 c 1.069702,0.434082 2.139405,0.868164 3.209107,1.302246 -0.295734,0.396158 -0.866482,0.368049 -1.293405,0.239509 -0.876475,-0.260334 -1.71099,-0.639564 -2.563602,-0.966653 -0.132426,-0.04295 -0.265139,-0.124595 -0.397393,-0.144327 -0.549814,0.22297 -1.09134,0.477143 -1.667719,0.62213 -0.07324,0.232838 0.150307,0.589809 -0.07687,0.842328 -0.311347,0.532157 -1.113542,0.624698 -1.561273,0.213165 -0.384914,-0.301216 -0.379442,-0.940948 7e-6,-1.245402 0.216628,-0.191603 0.506973,-0.286636 0.794095,-0.258382 0.496639,0.01219 1.013014,-0.04849 1.453829,-0.289388 0.437126,-0.238777 0.07006,-0.726966 -0.300853,-0.765416 -0.420775,-0.157424 -0.870816,-0.155853 -1.312747,-0.158623 -0.527075,-0.0016 -1.039244,-0.509731 -0.904342,-1.051293 0.137956,-0.620793 0.952738,-0.891064 1.47649,-0.573851 0.371484,0.188118 0.594679,0.675747 0.390321,1.062196 0.09829,0.262762 0.586716,0.204086 0.826177,0.378204 0.301582,0.119237 0.600056,0.246109 0.899816,0.36981 0.89919,-0.349142 1.785653,-0.732692 2.698347,-1.045565 0.459138,-0.152333 1.033472,-0.283325 1.442046,0.05643 0.217451,0.135635 -0.06954,0.160294 -0.174725,0.220936 -0.979101,0.397316 -1.958202,0.794633 -2.937303,1.19195 z m -3.44165,-1.917196 c -0.338434,-0.14399 -0.861225,0.116943 -0.775146,0.524517 0.143274,0.477916 0.915235,0.499056 1.10329,0.04328 0.09674,-0.247849 -0.09989,-0.490324 -0.328144,-0.567796 z" style="fill:#000000;fill-opacity:1;fill-rule:nonzero;stroke:none" transform="scale(1.9) translate(24,0)" /><line fill="none" stroke="black" stroke-dasharray="2 2" x1="219.68503" x2="219.68503" y1="3.54331" y2="372.04724" /><path d="m 0.764814,4.283977 c 0.337358,0.143009 0.862476,-0.115279 0.775145,-0.523225 -0.145918,-0.497473 -0.970289,-0.497475 -1.116209,-2e-6 -0.0636,0.23988 0.128719,0.447618 0.341064,0.523227 z m 3.875732,-1.917196 c 1.069702,0.434082 2.139405,0.868164 3.209107,1.302246 -0.295734,0.396158 -0.866482,0.368049 -1.293405,0.239509 -0.876475,-0.260334 -1.71099,-0.639564 -2.563602,-0.966653 -0.132426,-0.04295 -0.265139,-0.124595 -0.397393,-0.144327 -0.549814,0.22297 -1.09134,0.477143 -1.667719,0.62213 -0.07324,0.232838 0.150307,0.589809 -0.07687,0.842328 -0.311347,0.532157 -1.113542,0.624698 -1.561273,0.213165 -0.384914,-0.301216 -0.379442,-0.940948 7e-6,-1.245402 0.216628,-0.191603 0.506973,-0.286636 0.794095,-0.258382 0.496639,0.01219 1.013014,-0.04849 1.453829,-0.289388 0.437126,-0.238777 0.07006,-0.726966 -0.300853,-0.765416 -0.420775,-0.157424 -0.870816,-0.155853 -1.312747,-0.158623 -0.527075,-0.0016 -1.039244,-0.509731 -0.904342,-1.051293 0.137956,-0.620793 0.952738,-0.891064 1.47649,-0.573851 0.371484,0.188118 0.594679,0.675747 0.390321,1.062196 0.09829,0.262762 0.586716,0.204086 0.826177,0.378204 0.301582,0.119237 0.600056,0.246109 0.899816,0.36981 0.89919,-0.349142 1.785653,-0.732692 2.698347,-1.045565 0.459138,-0.152333 1.033472,-0.283325 1.442046,0.05643 0.217451,0.135635 -0.06954,0.160294 -0.174725,0.220936 -0.979101,0.397316 -1.958202,0.794633 -2.937303,1.19195 z m -3.44165,-1.917196 c -0.338434,-0.14399 -0.861225,0.116943 -0.775146,0.524517 0.143274,0.477916 0.915235,0.499056 1.10329,0.04328 0.09674,-0.247849 -0.09989,-0.490324 -0.328144,-0.567796 z" style="fill:#000000;fill-opacity:1;fill-rule:nonzero;stroke:none" transform="scale(1.9) translate(118,40) rotate(90)" /><text font-family="Arial,Helvetica" font-size="10.2" font-weight="bold" x="237.40157" y="38.97638">Zahlteil</text><path d="M0,0H1V1H0zM1,0H2V1H1zM2,0H3V1H2zM3,0H4V1H3zM4,0H5V1H4zM5,0H6V1H5zM6,0H7V1H6zM8,0H9V1H8zM9,0H10V1H9zM12,0H13V1H12zM16,0H17V1H16zM18,0H19V1H18zM19,0H20V1H19zM20,0H21V1H20zM21,0H22V1H21zM23,0H24V1H23zM26,0H27V1H26zM31,0H32V1H31zM32,0H33V1H32zM37,0H38V1H37zM38,0H39V1H38zM41,0H42V1H41zM42,0H43V1H42zM43,0H44V1H43zM45,0H46V1H45zM46,0H47V1H46zM48,0H49V1H48zM51,0H52V1H51zM52,0H53V1H52zM54,0H55V1H54zM55,0H56V1H55zM56,0H57V1H56zM57,0H58V1H57zM58,0H59V1H58zM59,0H60V1H59zM60,0H61V1H60zM0,1H1V2H0zM6,1H7V2H6zM9,1H10V2H9zM10,1H11V2H10zM11,1H12V2H11zM12,1H13V2H12zM18,1H19V2H18zM20,1H21V2H20zM21,1H22V2H21zM23,1H24V2H23zM24,1H25V2H24zM26,1H27V2H26zM27,1H28V2H27zM30,1H31V2H30zM33,1H34V2H33zM38,1H39V2H38zM43,1H44V2H43zM44,1H45V2H44zM47,1H48V2H47zM48,1H49V2H48zM49,1H50V2H49zM51,1H52V2H51zM52,1H53V2H52zM54,1H55V2H54zM60,1H61V2H60zM0,2H1V3H0zM2,2H3V3H2zM3,2H4V3H3zM4,2H5V3H4zM6,2H7V3H6zM9,2H10V3H9zM10,2H11V3H10zM12,2H13V3H12zM15,2H16V3H15zM17,2H18V3H17zM18,2H19V3H18zM19,2H20V3H19zM20,2H21V3H20zM21,2H22V3H21zM22,2H23V3H22zM23,2H24V3H23zM24,2H25V3H24zM27,2H28V3H27zM28,2H29V3H28zM30,2H31V3H30zM32,2H33V3H32zM33,2H34V3H33zM34,2H35V3H34zM35,2H36V3H35zM39,2H40V3H39zM41,2H42V3H41zM43,2H44V3H43zM45,2H46V3H45zM46,2H47V3H46zM47,2H48V3H47zM48,2H49V3H48zM50,2H51V3H50zM51,2H52V3H51zM52,2H53V3H52zM54,2H55V3H54zM56,2H57V3H56zM57,2H58V3H57zM58,2H59V3H58zM60,2H61V3H60zM0,3H1V4H0zM2,3H3V4H2zM3,3H4V4H3zM4,3H5V4H4zM6,3H7V4H6zM8,3H9V4H8zM9,3H10V4H9zM11,3H12V4H11zM13,3H14V4H13zM16,3H17V4H16zM17,3H18V4H17zM19,3H20V4H19zM21,3H22V4H21zM25,3H26V4H25zM28,3H29V4H28zM31,3H32V4H31zM32,3H33V4H32zM34,3H35V4H34zM36,3H37V4H36zM37,3H38V4H37zM39,3H40V4H39zM46,3H47V4H46zM50,3H51V4H50zM52,3H53V4H52zM54,3H55V4H54zM56,3H57V4H56zM57,3H58V4H57zM58,3H59V4H58zM60,3H61V4H60zM0,4H1V5H0zM2,4H3V5H2zM3,4H4V5H3zM4,4H5V5H4zM6,4H7V5H6zM8,4H9V5H8zM10,4H11V5H10zM11,4H12V5H11zM12,4H13V5H12zM13,4H14V5H13zM14,4H15V5H14zM15,4H16V5H15zM16,4H17V5H16zM19,4H20V5H19zM20,4H21V5H20zM22,4H23V5H22zM24,4H25V5H24zM25,4H26V5H25zM26,4H27V5H26zM27,4H28V5H27zM28,4H29V5H28zM29,4H30V5H29zM30,4H31V5H30zM31,4H32V5H31zM32,4H33V5H32zM37,4H38V5H37zM38,4H39V5H38zM42,4H43V5H42zM43,4H44V5H43zM49,4H50V5H49zM50,4H51V5H50zM51,4H52V5H51zM54,4H55V5H54zM56,4H57V5H56zM57,4H58V5H57zM58,4H59V5H58zM60,4H61V5H60zM0,5H1V6H0zM6,5H7V6H6zM8,5H9V6H8zM9,5H10V6H9zM15,5H16V6H15zM16,5H17V6H16zM17,5H18V6H17zM19,5H20V6H19zM22,5H23V6H22zM23,5H24V6H23zM26,5H27V6H26zM27,5H28V6H27zM28,5H29V6H28zM32,5H33V6H32zM33,5H34V6H33zM38,5H39V6H38zM39,5H40V6H39zM41,5H42V6H41zM42,5H43V6H42zM43,5H44V6H43zM45,5H46V6H45zM48,5H49V6H48zM50,5H51V6H50zM54,5H55V6H54zM60,5H61V6H60zM0,6H1V7H0zM1,6H2V7H1zM2,6H3V7H2zM3,6H4V7H3zM4,6H5V7H4zM5,6H6V7H5zM6,6H7V7H6zM8,6H9V7H8zM10,6H11V7H10zM12,6H13V7H12zM14,6H15V7H14zM16,6H17V7H16zM18,6H19V7H18zM20,6H21V7H20zM22,6H23V7H22zM24,6H25V7H24zM26,6H27V7H26zM28,6H29V7H28zM30,6H31V7H30zM32,6H33V7H32zM34,6H35V7H34zM36,6H37V7H36zM38,6H39V7H38zM40,6H41V7H40zM42,6H43V7H42zM44,6H45V7H44zM46,6H47V7H46zM48,6H49V7H48zM50,6H51V7H50zM52,6H53V7H52zM54,6H55V7H54zM55,6H56V7H55zM56,6H57V7H56zM57,6H58V7H57zM58,6H59V7H58zM59,6H60V7H59zM60,6H61V7H60zM8,7H9V8H8zM11,7H12V8H11zM16,7H17V8H16zM17,7H18V8H17zM22,7H23V8H22zM26,7H27V8H26zM27,7H28V8H27zM28,7H29V8H28zM32,7H33V8H32zM33,7H34V8H33zM35,7H36V8H35zM36,7H37V8H36zM37,7H38V8H37zM39,7H40V8H39zM41,7H42V8H41zM45,7H46V8H45zM47,7H48V8H47zM49,7H50V8H49zM50,7H51V8H50zM51,7H52V8H51zM0,8H1V9H0zM4,8H5V9H4zM6,8H7V9H6zM7,8H8V9H7zM8,8H9V9H8zM11,8H12V9H11zM12,8H13V9H12zM13,8H14V9H13zM14,8H15V9H14zM15,8H16V9H15zM19,8H20V9H19zM20,8H21V9H20zM22,8H23V9H22zM23,8H24V9H23zM24,8H25V9H24zM28,8H29V9H28zM29,8H30V9H29zM30,8H31V9H30zM31,8H32V9H31zM32,8H33V9H32zM34,8H35V9H34zM35,8H36V9H35zM36,8H37V9H36zM37,8H38V9H37zM39,8H40V9H39zM42,8H43V9H42zM46,8H47V9H46zM47,8H48V9H47zM50,8H51V9H50zM51,8H52V9H51zM53,8H54V9H53zM54,8H55V9H54zM55,8H56V9H55zM56,8H57V9H56zM57,8H58V9H57zM60,8H61V9H60zM1,9H2V10H1zM2,9H3V10H2zM4,9H5V10H4zM7,9H8V10H7zM10,9H11V10H10zM11,9H12V10H11zM12,9H13V10H12zM14,9H15V10H14zM15,9H16V10H15zM20,9H21V10H20zM23,9H24V10H23zM26,9H27V10H26zM29,9H30V10H29zM30,9H31V10H30zM31,9H32V10H31zM32,9H33V10H32zM36,9H37V10H36zM37,9H38V10H37zM40,9H41V10H40zM43,9H44V10H43zM44,9H45V10H44zM46,9H47V10H46zM48,9H49V10H48zM49,9H50V10H49zM50,9H51V10H50zM55,9H56V10H55zM56,9H57V10H56zM57,9H58V10H57zM59,9H60V10H59zM60,9H61V10H60zM1,10H2V11H1zM2,10H3V11H2zM3,10H4V11H3zM5,10H6V11H5zM6,10H7V11H6zM7,10H8V11H7zM9,10H10V11H9zM11,10H12V11H11zM13,10H14V11H13zM15,10H16V11H15zM16,10H17V11H16zM18,10H19V11H18zM21,10H22V11H21zM22,10H23V11H22zM23,10H24V11H23zM25,10H26V11H25zM26,10H27V11H26zM28,10H29V11H28zM31,10H32V11H31zM32,10H33V11H32zM34,10H35V11H34zM35,10H36V11H35zM40,10H41V11H40zM42,10H43V11H42zM43,10H44V11H43zM45,10H46V11H45zM46,10H47V11H46zM51,10H52V11H51zM53,10H54V11H53zM57,10H58V11H57zM58,10H59V11H58zM59,10H60V11H59zM2,11H3V12H2zM5,11H6V12H5zM7,11H8V12H7zM10,11H11V12H10zM11,11H12V12H11zM14,11H15V12H14zM16,11H17V12H16zM20,11H21V12H20zM23,11H24V12H23zM24,11H25V12H24zM26,11H27V12H26zM29,11H30V12H29zM30,11H31V12H30zM32,11H33V12H32zM33,11H34V12H33zM34,11H35V12H34zM37,11H38V12H37zM38,11H39V12H38zM40,11H41V12H40zM41,11H42V12H41zM44,11H45V12H44zM45,11H46V12H45zM47,11H48V12H47zM48,11H49V12H48zM51,11H52V12H51zM53,11H54V12H53zM54,11H55V12H54zM55,11H56V12H55zM56,11H57V12H56zM59,11H60V12H59zM0,12H1V13H0zM3,12H4V13H3zM6,12H7V13H6zM10,12H11V13H10zM14,12H15V13H14zM16,12H17V13H16zM18,12H19V13H18zM19,12H20V13H19zM21,12H22V13H21zM22,12H23V13H22zM23,12H24V13H23zM30,12H31V13H30zM31,12H32V13H31zM32,12H33V13H32zM36,12H37V13H36zM37,12H38V13H37zM38,12H39V13H38zM46,12H47V13H46zM48,12H49V13H48zM49,12H50V13H49zM51,12H52V13H51zM55,12H56V13H55zM56,12H57V13H56zM57,12H58V13H57zM59,12H60V13H59zM60,12H61V13H60zM1,13H2V14H1zM3,13H4V14H3zM4,13H5V14H4zM5,13H6V14H5zM11,13H12V14H11zM12,13H13V14H12zM17,13H18V14H17zM18,13H19V14H18zM20,13H21V14H20zM22,13H23V14H22zM25,13H26V14H25zM28,13H29V14H28zM29,13H30V14H29zM32,13H33V14H32zM33,13H34V14H33zM37,13H38V14H37zM38,13H39V14H38zM40,13H41V14H40zM41,13H42V14H41zM45,13H46V14H45zM46,13H47V14H46zM48,13H49V14H48zM54,13H55V14H54zM55,13H56V14H55zM57,13H58V14H57zM60,13H61V14H60zM0,14H1V15H0zM2,14H3V15H2zM3,14H4V15H3zM4,14H5V15H4zM6,14H7V15H6zM7,14H8V15H7zM8,14H9V15H8zM9,14H10V15H9zM10,14H11V15H10zM13,14H14V15H13zM14,14H15V15H14zM16,14H17V15H16zM18,14H19V15H18zM19,14H20V15H19zM20,14H21V15H20zM21,14H22V15H21zM22,14H23V15H22zM26,14H27V15H26zM27,14H28V15H27zM28,14H29V15H28zM29,14H30V15H29zM30,14H31V15H30zM31,14H32V15H31zM32,14H33V15H32zM36,14H37V15H36zM37,14H38V15H37zM39,14H40V15H39zM41,14H42V15H41zM42,14H43V15H42zM44,14H45V15H44zM45,14H46V15H45zM47,14H48V15H47zM51,14H52V15H51zM56,14H57V15H56zM57,14H58V15H57zM58,14H59V15H58zM0,15H1V16H0zM2,15H3V16H2zM9,15H10V16H9zM12,15H13V16H12zM14,15H15V16H14zM15,15H16V16H15zM21,15H22V16H21zM22,15H23V16H22zM24,15H25V16H24zM30,15H31V16H30zM33,15H34V16H33zM35,15H36V16H35zM37,15H38V16H37zM39,15H40V16H39zM40,15H41V16H40zM46,15H47V16H46zM47,15H48V16H47zM49,15H50V16H49zM51,15H52V16H51zM54,15H55V16H54zM55,15H56V16H55zM56,15H57V16H56zM58,15H59V16H58zM59,15H60V16H59zM0,16H1V17H0zM1,16H2V17H1zM3,16H4V17H3zM5,16H6V17H5zM6,16H7V17H6zM7,16H8V17H7zM9,16H10V17H9zM11,16H12V17H11zM12,16H13V17H12zM13,16H14V17H13zM14,16H15V17H14zM15,16H16V17H15zM19,16H20V17H19zM20,16H21V17H20zM21,16H22V17H21zM22,16H23V17H22zM23,16H24V17H23zM24,16H25V17H24zM28,16H29V17H28zM31,16H32V17H31zM34,16H35V17H34zM35,16H36V17H35zM37,16H38V17H37zM39,16H40V17H39zM40,16H41V17H40zM42,16H43V17H42zM46,16H47V17H46zM47,16H48V17H47zM49,16H50V17H49zM50,16H51V17H50zM56,16H57V17H56zM57,16H58V17H57zM59,16H60V17H59zM2,17H3V18H2zM5,17H6V18H5zM7,17H8V18H7zM12,17H13V18H12zM16,17H17V18H16zM17,17H18V18H17zM18,17H19V18H18zM19,17H20V18H19zM21,17H22V18H21zM24,17H25V18H24zM25,17H26V18H25zM26,17H27V18H26zM29,17H30V18H29zM30,17H31V18H30zM33,17H34V18H33zM34,17H35V18H34zM37,17H38V18H37zM38,17H39V18H38zM40,17H41V18H40zM43,17H44V18H43zM45,17H46V18H45zM49,17H50V18H49zM50,17H51V18H50zM52,17H53V18H52zM53,17H54V18H53zM55,17H56V18H55zM56,17H57V18H56zM59,17H60V18H59zM60,17H61V18H60zM0,18H1V19H0zM2,18H3V19H2zM3,18H4V19H3zM4,18H5V19H4zM5,18H6V19H5zM6,18H7V19H6zM7,18H8V19H7zM8,18H9V19H8zM10,18H11V19H10zM11,18H12V19H11zM18,18H19V19H18zM19,18H20V19H19zM21,18H22V19H21zM25,18H26V19H25zM26,18H27V19H26zM27,18H28V19H27zM29,18H30V19H29zM30,18H31V19H30zM32,18H33V19H32zM33,18H34V19H33zM34,18H35V19H34zM36,18H37V19H36zM37,18H38V19H37zM41,18H42V19H41zM43,18H44V19H43zM44,18H45V19H44zM45,18H46V19H45zM48,18H49V19H48zM49,18H50V19H49zM51,18H52V19H51zM52,18H53V19H52zM53,18H54V19H53zM55,18H56V19H55zM56,18H57V19H56zM3,19H4V20H3zM4,19H5V20H4zM7,19H8V20H7zM8,19H9V20H8zM11,19H12V20H11zM12,19H13V20H12zM14,19H15V20H14zM15,19H16V20H15zM17,19H18V20H17zM18,19H19V20H18zM20,19H21V20H20zM21,19H22V20H21zM26,19H27V20H26zM30,19H31V20H30zM34,19H35V20H34zM38,19H39V20H38zM40,19H41V20H40zM44,19H45V20H44zM46,19H47V20H46zM47,19H48V20H47zM48,19H49V20H48zM49,19H50V20H49zM52,19H53V20H52zM55,19H56V20H55zM58,19H59V20H58zM59,19H60V20H59zM60,19H61V20H60zM0,20H1V21H0zM4,20H5V21H4zM5,20H6V21H5zM6,20H7V21H6zM7,20H8V21H7zM10,20H11V21H10zM13,20H14V21H13zM14,20H15V21H14zM15,20H16V21H15zM16,20H17V21H16zM17,20H18V21H17zM18,20H19V21H18zM19,20H20V21H19zM20,20H21V21H20zM21,20H22V21H21zM22,20H23V21H22zM24,20H25V21H24zM28,20H29V21H28zM29,20H30V21H29zM30,20H31V21H30zM32,20H33V21H32zM36,20H37V21H36zM37,20H38V21H37zM40,20H41V21H40zM42,20H43V21H42zM44,20H45V21H44zM46,20H47V21H46zM47,20H48V21H47zM49,20H50V21H49zM50,20H51V21H50zM54,20H55V21H54zM57,20H58V21H57zM59,20H60V21H59zM0,21H1V22H0zM3,21H4V22H3zM4,21H5V22H4zM7,21H8V22H7zM8,21H9V22H8zM10,21H11V22H10zM12,21H13V22H12zM14,21H15V22H14zM15,21H16V22H15zM16,21H17V22H16zM17,21H18V22H17zM18,21H19V22H18zM20,21H21V22H20zM21,21H22V22H21zM23,21H24V22H23zM25,21H26V22H25zM26,21H27V22H26zM28,21H29V22H28zM30,21H31V22H30zM31,21H32V22H31zM32,21H33V22H32zM36,21H37V22H36zM37,21H38V22H37zM38,21H39V22H38zM40,21H41V22H40zM41,21H42V22H41zM42,21H43V22H42zM43,21H44V22H43zM44,21H45V22H44zM45,21H46V22H45zM46,21H47V22H46zM49,21H50V22H49zM50,21H51V22H50zM53,21H54V22H53zM54,21H55V22H54zM55,21H56V22H55zM56,21H57V22H56zM4,22H5V23H4zM5,22H6V23H5zM6,22H7V23H6zM7,22H8V23H7zM8,22H9V23H8zM9,22H10V23H9zM13,22H14V23H13zM16,22H17V23H16zM17,22H18V23H17zM18,22H19V23H18zM19,22H20V23H19zM21,22H22V23H21zM27,22H28V23H27zM28,22H29V23H28zM32,22H33V23H32zM34,22H35V23H34zM36,22H37V23H36zM37,22H38V23H37zM40,22H41V23H40zM41,22H42V23H41zM42,22H43V23H42zM43,22H44V23H43zM46,22H47V23H46zM47,22H48V23H47zM49,22H50V23H49zM51,22H52V23H51zM52,22H53V23H52zM53,22H54V23H53zM55,22H56V23H55zM57,22H58V23H57zM58,22H59V23H58zM60,22H61V23H60zM0,23H1V24H0zM2,23H3V24H2zM5,23H6V24H5zM7,23H8V24H7zM10,23H11V24H10zM12,23H13V24H12zM14,23H15V24H14zM15,23H16V24H15zM16,23H17V24H16zM18,23H19V24H18zM20,23H21V24H20zM24,23H25V24H24zM29,23H30V24H29zM37,23H38V24H37zM38,23H39V24H38zM40,23H41V24H40zM42,23H43V24H42zM43,23H44V24H43zM47,23H48V24H47zM48,23H49V24H48zM49,23H50V24H49zM51,23H52V24H51zM52,23H53V24H52zM53,23H54V24H53zM55,23H56V24H55zM57,23H58V24H57zM59,23H60V24H59zM0,24H1V25H0zM3,24H4V25H3zM4,24H5V25H4zM6,24H7V25H6zM7,24H8V25H7zM8,24H9V25H8zM9,24H10V25H9zM10,24H11V25H10zM12,24H13V25H12zM14,24H15V25H14zM15,24H16V25H15zM17,24H18V25H17zM18,24H19V25H18zM19,24H20V25H19zM24,24H25V25H24zM25,24H26V25H25zM28,24H29V25H28zM29,24H30V25H29zM30,24H31V25H30zM32,24H33V25H32zM34,24H35V25H34zM35,24H36V25H35zM37,24H38V25H37zM43,24H44V25H43zM44,24H45V25H44zM46,24H47V25H46zM47,24H48V25H47zM48,24H49V25H48zM49,24H50V25H49zM50,24H51V25H50zM51,24H52V25H51zM54,24H55V25H54zM55,24H56V25H55zM56,24H57V25H56zM60,24H61V25H60zM0,25H1V26H0zM1,25H2V26H1zM2,25H3V26H2zM7,25H8V26H7zM8,25H9V26H8zM9,25H10V26H9zM10,25H11V26H10zM11,25H12V26H11zM18,25H19V26H18zM19,25H20V26H19zM21,25H22V26H21zM23,25H24V26H23zM25,25H26V26H25zM26,25H27V26H26zM27,25H28V26H27zM28,25H29V26H28zM29,25H30V26H29zM32,25H33V26H32zM33,25H34V26H33zM34,25H35V26H34zM36,25H37V26H36zM40,25H41V26H40zM41,25H42V26H41zM43,25H44V26H43zM44,25H45V26H44zM45,25H46V26H45zM46,25H47V26H46zM48,25H49V26H48zM49,25H50V26H49zM54,25H55V26H54zM55,25H56V26H55zM56,25H57V26H56zM58,25H59V26H58zM60,25H61V26H60zM0,26H1V27H0zM3,26H4V27H3zM4,26H5V27H4zM5,26H6V27H5zM6,26H7V27H6zM7,26H8V27H7zM8,26H9V27H8zM13,26H14V27H13zM17,26H18V27H17zM18,26H19V27H18zM19,26H20V27H19zM20,26H21V27H20zM22,26H23V27H22zM23,26H24V27H23zM24,26H25V27H24zM28,26H29V27H28zM29,26H30V27H29zM30,26H31V27H30zM33,26H34V27H33zM34,26H35V27H34zM35,26H36V27H35zM39,26H40V27H39zM41,26H42V27H41zM45,26H46V27H45zM46,26H47V27H46zM51,26H52V27H51zM52,26H53V27H52zM54,26H55V27H54zM55,26H56V27H55zM57,26H58V27H57zM60,26H61V27H60zM1,27H2V28H1zM2,27H3V28H2zM3,27H4V28H3zM4,27H5V28H4zM12,27H13V28H12zM13,27H14V28H13zM15,27H16V28H15zM17,27H18V28H17zM21,27H22V28H21zM24,27H25V28H24zM30,27H31V28H30zM31,27H32V28H31zM34,27H35V28H34zM36,27H37V28H36zM39,27H40V28H39zM42,27H43V28H42zM44,27H45V28H44zM45,27H46V28H45zM47,27H48V28H47zM50,27H51V28H50zM52,27H53V28H52zM53,27H54V28H53zM57,27H58V28H57zM58,27H59V28H58zM59,27H60V28H59zM2,28H3V29H2zM3,28H4V29H3zM4,28H5V29H4zM5,28H6V29H5zM6,28H7V29H6zM7,28H8V29H7zM8,28H9V29H8zM9,28H10V29H9zM10,28H11V29H10zM11,28H12V29H11zM12,28H13V29H12zM16,28H17V29H16zM17,28H18V29H17zM19,28H20V29H19zM23,28H24V29H23zM25,28H26V29H25zM26,28H27V29H26zM28,28H29V29H28zM29,28H30V29H29zM30,28H31V29H30zM31,28H32V29H31zM32,28H33V29H32zM35,28H36V29H35zM36,28H37V29H36zM37,28H38V29H37zM38,28H39V29H38zM39,28H40V29H39zM42,28H43V29H42zM45,28H46V29H45zM46,28H47V29H46zM47,28H48V29H47zM49,28H50V29H49zM51,28H52V29H51zM52,28H53V29H52zM53,28H54V29H53zM54,28H55V29H54zM55,28H56V29H55zM56,28H57V29H56zM57,28H58V29H57zM0,29H1V30H0zM2,29H3V30H2zM3,29H4V30H3zM4,29H5V30H4zM8,29H9V30H8zM10,29H11V30H10zM13,29H14V30H13zM14,29H15V30H14zM17,29H18V30H17zM23,29H24V30H23zM24,29H25V30H24zM26,29H27V30H26zM27,29H28V30H27zM28,29H29V30H28zM32,29H33V30H32zM34,29H35V30H34zM36,29H37V30H36zM37,29H38V30H37zM38,29H39V30H38zM41,29H42V30H41zM42,29H43V30H42zM43,29H44V30H43zM44,29H45V30H44zM45,29H46V30H45zM49,29H50V30H49zM50,29H51V30H50zM52,29H53V30H52zM56,29H57V30H56zM59,29H60V30H59zM60,29H61V30H60zM2,30H3V31H2zM3,30H4V31H3zM4,30H5V31H4zM6,30H7V31H6zM8,30H9V31H8zM9,30H10V31H9zM10,30H11V31H10zM11,30H12V31H11zM12,30H13V31H12zM13,30H14V31H13zM14,30H15V31H14zM15,30H16V31H15zM16,30H17V31H16zM18,30H19V31H18zM19,30H20V31H19zM21,30H22V31H21zM22,30H23V31H22zM24,30H25V31H24zM25,30H26V31H25zM26,30H27V31H26zM27,30H28V31H27zM28,30H29V31H28zM30,30H31V31H30zM32,30H33V31H32zM33,30H34V31H33zM39,30H40V31H39zM40,30H41V31H40zM42,30H43V31H42zM44,30H45V31H44zM45,30H46V31H45zM46,30H47V31H46zM49,30H50V31H49zM50,30H51V31H50zM51,30H52V31H51zM52,30H53V31H52zM54,30H55V31H54zM56,30H57V31H56zM57,30H58V31H57zM59,30H60V31H59zM2,31H3V32H2zM4,31H5V32H4zM8,31H9V32H8zM14,31H15V32H14zM15,31H16V32H15zM17,31H18V32H17zM22,31H23V32H22zM26,31H27V32H26zM27,31H28V32H27zM28,31H29V32H28zM32,31H33V32H32zM33,31H34V32H33zM34,31H35V32H34zM35,31H36V32H35zM36,31H37V32H36zM38,31H39V32H38zM39,31H40V32H39zM40,31H41V32H40zM46,31H47V32H46zM47,31H48V32H47zM48,31H49V32H48zM50,31H51V32H50zM51,31H52V32H51zM52,31H53V32H52zM56,31H57V32H56zM59,31H60V32H59zM60,31H61V32H60zM0,32H1V33H0zM4,32H5V33H4zM5,32H6V33H5zM6,32H7V33H6zM7,32H8V33H7zM8,32H9V33H8zM9,32H10V33H9zM10,32H11V33H10zM13,32H14V33H13zM15,32H16V33H15zM19,32H20V33H19zM20,32H21V33H20zM21,32H22V33H21zM28,32H29V33H28zM29,32H30V33H29zM30,32H31V33H30zM31,32H32V33H31zM32,32H33V33H32zM34,32H35V33H34zM35,32H36V33H35zM36,32H37V33H36zM37,32H38V33H37zM39,32H40V33H39zM40,32H41V33H40zM43,32H44V33H43zM44,32H45V33H44zM48,32H49V33H48zM49,32H50V33H49zM50,32H51V33H50zM52,32H53V33H52zM53,32H54V33H53zM54,32H55V33H54zM55,32H56V33H55zM56,32H57V33H56zM57,32H58V33H57zM1,33H2V34H1zM2,33H3V34H2zM5,33H6V34H5zM7,33H8V34H7zM11,33H12V34H11zM13,33H14V34H13zM14,33H15V34H14zM17,33H18V34H17zM19,33H20V34H19zM21,33H22V34H21zM22,33H23V34H22zM23,33H24V34H23zM24,33H25V34H24zM26,33H27V34H26zM27,33H28V34H27zM28,33H29V34H28zM29,33H30V34H29zM30,33H31V34H30zM31,33H32V34H31zM32,33H33V34H32zM33,33H34V34H33zM35,33H36V34H35zM36,33H37V34H36zM37,33H38V34H37zM38,33H39V34H38zM39,33H40V34H39zM41,33H42V34H41zM43,33H44V34H43zM44,33H45V34H44zM45,33H46V34H45zM46,33H47V34H46zM56,33H57V34H56zM58,33H59V34H58zM60,33H61V34H60zM2,34H3V35H2zM3,34H4V35H3zM5,34H6V35H5zM6,34H7V35H6zM7,34H8V35H7zM10,34H11V35H10zM14,34H15V35H14zM15,34H16V35H15zM17,34H18V35H17zM18,34H19V35H18zM20,34H21V35H20zM23,34H24V35H23zM25,34H26V35H25zM26,34H27V35H26zM28,34H29V35H28zM35,34H36V35H35zM37,34H38V35H37zM39,34H40V35H39zM40,34H41V35H40zM41,34H42V35H41zM42,34H43V35H42zM45,34H46V35H45zM46,34H47V35H46zM47,34H48V35H47zM48,34H49V35H48zM49,34H50V35H49zM53,34H54V35H53zM54,34H55V35H54zM57,34H58V35H57zM3,35H4V36H3zM10,35H11V36H10zM13,35H14V36H13zM15,35H16V36H15zM16,35H17V36H16zM17,35H18V36H17zM21,35H22V36H21zM22,35H23V36H22zM26,35H27V36H26zM27,35H28V36H27zM28,35H29V36H28zM30,35H31V36H30zM31,35H32V36H31zM32,35H33V36H32zM33,35H34V36H33zM38,35H39V36H38zM40,35H41V36H40zM43,35H44V36H43zM46,35H47V36H46zM47,35H48V36H47zM50,35H51V36H50zM51,35H52V36H51zM52,35H53V36H52zM53,35H54V36H53zM56,35H57V36H56zM57,35H58V36H57zM59,35H60V36H59zM0,36H1V37H0zM3,36H4V37H3zM4,36H5V37H4zM6,36H7V37H6zM8,36H9V37H8zM9,36H10V37H9zM10,36H11V37H10zM11,36H12V37H11zM15,36H16V37H15zM16,36H17V37H16zM17,36H18V37H17zM22,36H23V37H22zM23,36H24V37H23zM24,36H25V37H24zM28,36H29V37H28zM29,36H30V37H29zM30,36H31V37H30zM31,36H32V37H31zM32,36H33V37H32zM36,36H37V37H36zM37,36H38V37H37zM43,36H44V37H43zM44,36H45V37H44zM46,36H47V37H46zM48,36H49V37H48zM49,36H50V37H49zM53,36H54V37H53zM54,36H55V37H54zM55,36H56V37H55zM56,36H57V37H56zM57,36H58V37H57zM60,36H61V37H60zM0,37H1V38H0zM2,37H3V38H2zM3,37H4V38H3zM4,37H5V38H4zM5,37H6V38H5zM13,37H14V38H13zM14,37H15V38H14zM15,37H16V38H15zM17,37H18V38H17zM19,37H20V38H19zM22,37H23V38H22zM25,37H26V38H25zM26,37H27V38H26zM28,37H29V38H28zM29,37H30V38H29zM35,37H36V38H35zM36,37H37V38H36zM37,37H38V38H37zM38,37H39V38H38zM39,37H40V38H39zM44,37H45V38H44zM45,37H46V38H45zM48,37H49V38H48zM49,37H50V38H49zM50,37H51V38H50zM52,37H53V38H52zM54,37H55V38H54zM55,37H56V38H55zM56,37H57V38H56zM60,37H61V38H60zM2,38H3V39H2zM3,38H4V39H3zM4,38H5V39H4zM5,38H6V39H5zM6,38H7V39H6zM7,38H8V39H7zM11,38H12V39H11zM14,38H15V39H14zM15,38H16V39H15zM17,38H18V39H17zM18,38H19V39H18zM22,38H23V39H22zM23,38H24V39H23zM24,38H25V39H24zM28,38H29V39H28zM30,38H31V39H30zM34,38H35V39H34zM35,38H36V39H35zM37,38H38V39H37zM39,38H40V39H39zM40,38H41V39H40zM46,38H47V39H46zM47,38H48V39H47zM48,38H49V39H48zM49,38H50V39H49zM51,38H52V39H51zM53,38H54V39H53zM55,38H56V39H55zM57,38H58V39H57zM58,38H59V39H58zM59,38H60V39H59zM3,39H4V40H3zM4,39H5V40H4zM7,39H8V40H7zM11,39H12V40H11zM13,39H14V40H13zM16,39H17V40H16zM17,39H18V40H17zM18,39H19V40H18zM19,39H20V40H19zM20,39H21V40H20zM21,39H22V40H21zM25,39H26V40H25zM27,39H28V40H27zM29,39H30V40H29zM30,39H31V40H30zM31,39H32V40H31zM32,39H33V40H32zM33,39H34V40H33zM37,39H38V40H37zM39,39H40V40H39zM40,39H41V40H40zM43,39H44V40H43zM45,39H46V40H45zM46,39H47V40H46zM47,39H48V40H47zM50,39H51V40H50zM51,39H52V40H51zM52,39H53V40H52zM55,39H56V40H55zM56,39H57V40H56zM58,39H59V40H58zM59,39H60V40H59zM6,40H7V41H6zM7,40H8V41H7zM8,40H9V41H8zM10,40H11V41H10zM14,40H15V41H14zM15,40H16V41H15zM16,40H17V41H16zM17,40H18V41H17zM18,40H19V41H18zM19,40H20V41H19zM20,40H21V41H20zM22,40H23V41H22zM23,40H24V41H23zM24,40H25V41H24zM25,40H26V41H25zM26,40H27V41H26zM29,40H30V41H29zM31,40H32V41H31zM32,40H33V41H32zM34,40H35V41H34zM37,40H38V41H37zM38,40H39V41H38zM40,40H41V41H40zM43,40H44V41H43zM44,40H45V41H44zM47,40H48V41H47zM49,40H50V41H49zM54,40H55V41H54zM56,40H57V41H56zM60,40H61V41H60zM0,41H1V42H0zM1,41H2V42H1zM7,41H8V42H7zM8,41H9V42H8zM9,41H10V42H9zM10,41H11V42H10zM11,41H12V42H11zM12,41H13V42H12zM14,41H15V42H14zM15,41H16V42H15zM18,41H19V42H18zM20,41H21V42H20zM22,41H23V42H22zM24,41H25V42H24zM26,41H27V42H26zM28,41H29V42H28zM29,41H30V42H29zM30,41H31V42H30zM32,41H33V42H32zM37,41H38V42H37zM42,41H43V42H42zM43,41H44V42H43zM45,41H46V42H45zM46,41H47V42H46zM49,41H50V42H49zM50,41H51V42H50zM51,41H52V42H51zM56,41H57V42H56zM57,41H58V42H57zM59,41H60V42H59zM60,41H61V42H60zM1,42H2V43H1zM2,42H3V43H2zM3,42H4V43H3zM4,42H5V43H4zM6,42H7V43H6zM7,42H8V43H7zM11,42H12V43H11zM14,42H15V43H14zM15,42H16V43H15zM18,42H19V43H18zM20,42H21V43H20zM21,42H22V43H21zM26,42H27V43H26zM28,42H29V43H28zM29,42H30V43H29zM31,42H32V43H31zM34,42H35V43H34zM36,42H37V43H36zM37,42H38V43H37zM40,42H41V43H40zM44,42H45V43H44zM46,42H47V43H46zM49,42H50V43H49zM54,42H55V43H54zM57,42H58V43H57zM58,42H59V43H58zM60,42H61V43H60zM0,43H1V44H0zM2,43H3V44H2zM3,43H4V44H3zM7,43H8V44H7zM8,43H9V44H8zM9,43H10V44H9zM10,43H11V44H10zM12,43H13V44H12zM13,43H14V44H13zM14,43H15V44H14zM15,43H16V44H15zM16,43H17V44H16zM20,43H21V44H20zM22,43H23V44H22zM23,43H24V44H23zM26,43H27V44H26zM27,43H28V44H27zM28,43H29V44H28zM29,43H30V44H29zM33,43H34V44H33zM34,43H35V44H34zM40,43H41V44H40zM41,43H42V44H41zM44,43H45V44H44zM45,43H46V44H45zM46,43H47V44H46zM50,43H51V44H50zM52,43H53V44H52zM53,43H54V44H53zM54,43H55V44H54zM55,43H56V44H55zM59,43H60V44H59zM2,44H3V45H2zM6,44H7V45H6zM7,44H8V45H7zM8,44H9V45H8zM9,44H10V45H9zM11,44H12V45H11zM13,44H14V45H13zM20,44H21V45H20zM21,44H22V45H21zM22,44H23V45H22zM24,44H25V45H24zM27,44H28V45H27zM28,44H29V45H28zM29,44H30V45H29zM31,44H32V45H31zM33,44H34V45H33zM35,44H36V45H35zM38,44H39V45H38zM41,44H42V45H41zM42,44H43V45H42zM44,44H45V45H44zM45,44H46V45H45zM48,44H49V45H48zM49,44H50V45H49zM54,44H55V45H54zM55,44H56V45H55zM56,44H57V45H56zM0,45H1V46H0zM3,45H4V46H3zM5,45H6V46H5zM8,45H9V46H8zM12,45H13V46H12zM13,45H14V46H13zM14,45H15V46H14zM16,45H17V46H16zM18,45H19V46H18zM19,45H20V46H19zM21,45H22V46H21zM22,45H23V46H22zM26,45H27V46H26zM29,45H30V46H29zM31,45H32V46H31zM37,45H38V46H37zM38,45H39V46H38zM42,45H43V46H42zM43,45H44V46H43zM44,45H45V46H44zM49,45H50V46H49zM54,45H55V46H54zM57,45H58V46H57zM59,45H60V46H59zM60,45H61V46H60zM1,46H2V47H1zM2,46H3V47H2zM6,46H7V47H6zM8,46H9V47H8zM9,46H10V47H9zM10,46H11V47H10zM12,46H13V47H12zM13,46H14V47H13zM14,46H15V47H14zM16,46H17V47H16zM26,46H27V47H26zM27,46H28V47H27zM30,46H31V47H30zM31,46H32V47H31zM34,46H35V47H34zM35,46H36V47H35zM37,46H38V47H37zM46,46H47V47H46zM47,46H48V47H47zM48,46H49V47H48zM50,46H51V47H50zM51,46H52V47H51zM52,46H53V47H52zM57,46H58V47H57zM58,46H59V47H58zM0,47H1V48H0zM3,47H4V48H3zM4,47H5V48H4zM5,47H6V48H5zM7,47H8V48H7zM8,47H9V48H8zM12,47H13V48H12zM14,47H15V48H14zM16,47H17V48H16zM18,47H19V48H18zM19,47H20V48H19zM22,47H23V48H22zM26,47H27V48H26zM27,47H28V48H27zM28,47H29V48H28zM29,47H30V48H29zM30,47H31V48H30zM34,47H35V48H34zM38,47H39V48H38zM39,47H40V48H39zM40,47H41V48H40zM41,47H42V48H41zM44,47H45V48H44zM45,47H46V48H45zM46,47H47V48H46zM47,47H48V48H47zM48,47H49V48H48zM53,47H54V48H53zM54,47H55V48H54zM56,47H57V48H56zM57,47H58V48H57zM58,47H59V48H58zM59,47H60V48H59zM60,47H61V48H60zM1,48H2V49H1zM3,48H4V49H3zM4,48H5V49H4zM5,48H6V49H5zM6,48H7V49H6zM8,48H9V49H8zM9,48H10V49H9zM13,48H14V49H13zM14,48H15V49H14zM16,48H17V49H16zM17,48H18V49H17zM20,48H21V49H20zM22,48H23V49H22zM25,48H26V49H25zM26,48H27V49H26zM29,48H30V49H29zM31,48H32V49H31zM34,48H35V49H34zM36,48H37V49H36zM38,48H39V49H38zM39,48H40V49H39zM41,48H42V49H41zM42,48H43V49H42zM46,48H47V49H46zM47,48H48V49H47zM50,48H51V49H50zM54,48H55V49H54zM56,48H57V49H56zM57,48H58V49H57zM59,48H60V49H59zM60,48H61V49H60zM0,49H1V50H0zM2,49H3V50H2zM4,49H5V50H4zM8,49H9V50H8zM9,49H10V50H9zM12,49H13V50H12zM13,49H14V50H13zM21,49H22V50H21zM23,49H24V50H23zM24,49H25V50H24zM26,49H27V50H26zM28,49H29V50H28zM30,49H31V50H30zM31,49H32V50H31zM37,49H38V50H37zM40,49H41V50H40zM42,49H43V50H42zM43,49H44V50H43zM45,49H46V50H45zM46,49H47V50H46zM49,49H50V50H49zM50,49H51V50H50zM51,49H52V50H51zM55,49H56V50H55zM56,49H57V50H56zM58,49H59V50H58zM59,49H60V50H59zM60,49H61V50H60zM2,50H3V51H2zM3,50H4V51H3zM4,50H5V51H4zM5,50H6V51H5zM6,50H7V51H6zM8,50H9V51H8zM11,50H12V51H11zM12,50H13V51H12zM16,50H17V51H16zM17,50H18V51H17zM19,50H20V51H19zM21,50H22V51H21zM23,50H24V51H23zM25,50H26V51H25zM26,50H27V51H26zM28,50H29V51H28zM29,50H30V51H29zM30,50H31V51H30zM34,50H35V51H34zM35,50H36V51H35zM36,50H37V51H36zM38,50H39V51H38zM39,50H40V51H39zM43,50H44V51H43zM46,50H47V51H46zM47,50H48V51H47zM51,50H52V51H51zM52,50H53V51H52zM53,50H54V51H53zM56,50H57V51H56zM57,50H58V51H57zM58,50H59V51H58zM59,50H60V51H59zM0,51H1V52H0zM1,51H2V52H1zM2,51H3V52H2zM4,51H5V52H4zM7,51H8V52H7zM8,51H9V52H8zM10,51H11V52H10zM12,51H13V52H12zM13,51H14V52H13zM14,51H15V52H14zM17,51H18V52H17zM19,51H20V52H19zM20,51H21V52H20zM21,51H22V52H21zM23,51H24V52H23zM27,51H28V52H27zM29,51H30V52H29zM31,51H32V52H31zM32,51H33V52H32zM33,51H34V52H33zM34,51H35V52H34zM35,51H36V52H35zM37,51H38V52H37zM47,51H48V52H47zM50,51H51V52H50zM51,51H52V52H51zM54,51H55V52H54zM56,51H57V52H56zM59,51H60V52H59zM0,52H1V53H0zM1,52H2V53H1zM2,52H3V53H2zM3,52H4V53H3zM6,52H7V53H6zM8,52H9V53H8zM9,52H10V53H9zM14,52H15V53H14zM18,52H19V53H18zM19,52H20V53H19zM20,52H21V53H20zM21,52H22V53H21zM24,52H25V53H24zM26,52H27V53H26zM28,52H29V53H28zM29,52H30V53H29zM30,52H31V53H30zM31,52H32V53H31zM32,52H33V53H32zM36,52H37V53H36zM37,52H38V53H37zM38,52H39V53H38zM40,52H41V53H40zM43,52H44V53H43zM44,52H45V53H44zM46,52H47V53H46zM48,52H49V53H48zM49,52H50V53H49zM50,52H51V53H50zM51,52H52V53H51zM52,52H53V53H52zM53,52H54V53H53zM54,52H55V53H54zM55,52H56V53H55zM56,52H57V53H56zM57,52H58V53H57zM60,52H61V53H60zM8,53H9V54H8zM12,53H13V54H12zM15,53H16V54H15zM17,53H18V54H17zM18,53H19V54H18zM21,53H22V54H21zM25,53H26V54H25zM26,53H27V54H26zM28,53H29V54H28zM32,53H33V54H32zM36,53H37V54H36zM37,53H38V54H37zM38,53H39V54H38zM40,53H41V54H40zM41,53H42V54H41zM43,53H44V54H43zM44,53H45V54H44zM45,53H46V54H45zM46,53H47V54H46zM47,53H48V54H47zM48,53H49V54H48zM52,53H53V54H52zM56,53H57V54H56zM57,53H58V54H57zM58,53H59V54H58zM60,53H61V54H60zM0,54H1V55H0zM1,54H2V55H1zM2,54H3V55H2zM3,54H4V55H3zM4,54H5V55H4zM5,54H6V55H5zM6,54H7V55H6zM8,54H9V55H8zM9,54H10V55H9zM10,54H11V55H10zM13,54H14V55H13zM14,54H15V55H14zM17,54H18V55H17zM23,54H24V55H23zM26,54H27V55H26zM27,54H28V55H27zM28,54H29V55H28zM30,54H31V55H30zM32,54H33V55H32zM34,54H35V55H34zM35,54H36V55H35zM36,54H37V55H36zM37,54H38V55H37zM40,54H41V55H40zM41,54H42V55H41zM45,54H46V55H45zM48,54H49V55H48zM49,54H50V55H49zM51,54H52V55H51zM52,54H53V55H52zM54,54H55V55H54zM56,54H57V55H56zM57,54H58V55H57zM58,54H59V55H58zM0,55H1V56H0zM6,55H7V56H6zM9,55H10V56H9zM17,55H18V56H17zM18,55H19V56H18zM19,55H20V56H19zM20,55H21V56H20zM21,55H22V56H21zM26,55H27V56H26zM28,55H29V56H28zM32,55H33V56H32zM33,55H34V56H33zM35,55H36V56H35zM37,55H38V56H37zM39,55H40V56H39zM40,55H41V56H40zM41,55H42V56H41zM47,55H48V56H47zM49,55H50V56H49zM52,55H53V56H52zM56,55H57V56H56zM59,55H60V56H59zM60,55H61V56H60zM0,56H1V57H0zM2,56H3V57H2zM3,56H4V57H3zM4,56H5V57H4zM6,56H7V57H6zM8,56H9V57H8zM11,56H12V57H11zM12,56H13V57H12zM13,56H14V57H13zM14,56H15V57H14zM16,56H17V57H16zM17,56H18V57H17zM19,56H20V57H19zM20,56H21V57H20zM22,56H23V57H22zM28,56H29V57H28zM29,56H30V57H29zM30,56H31V57H30zM31,56H32V57H31zM32,56H33V57H32zM34,56H35V57H34zM35,56H36V57H35zM37,56H38V57H37zM38,56H39V57H38zM39,56H40V57H39zM40,56H41V57H40zM42,56H43V57H42zM49,56H50V57H49zM50,56H51V57H50zM52,56H53V57H52zM53,56H54V57H53zM54,56H55V57H54zM55,56H56V57H55zM56,56H57V57H56zM58,56H59V57H58zM59,56H60V57H59zM60,56H61V57H60zM0,57H1V58H0zM2,57H3V58H2zM3,57H4V58H3zM4,57H5V58H4zM6,57H7V58H6zM9,57H10V58H9zM10,57H11V58H10zM13,57H14V58H13zM14,57H15V58H14zM18,57H19V58H18zM19,57H20V58H19zM21,57H22V58H21zM23,57H24V58H23zM25,57H26V58H25zM26,57H27V58H26zM29,57H30V58H29zM31,57H32V58H31zM37,57H38V58H37zM40,57H41V58H40zM43,57H44V58H43zM45,57H46V58H45zM48,57H49V58H48zM49,57H50V58H49zM50,57H51V58H50zM51,57H52V58H51zM53,57H54V58H53zM55,57H56V58H55zM56,57H57V58H56zM60,57H61V58H60zM0,58H1V59H0zM2,58H3V59H2zM3,58H4V59H3zM4,58H5V59H4zM6,58H7V59H6zM10,58H11V59H10zM13,58H14V59H13zM15,58H16V59H15zM16,58H17V59H16zM17,58H18V59H17zM18,58H19V59H18zM19,58H20V59H19zM20,58H21V59H20zM22,58H23V59H22zM23,58H24V59H23zM24,58H25V59H24zM25,58H26V59H25zM26,58H27V59H26zM29,58H30V59H29zM31,58H32V59H31zM32,58H33V59H32zM34,58H35V59H34zM36,58H37V59H36zM41,58H42V59H41zM43,58H44V59H43zM44,58H45V59H44zM45,58H46V59H45zM47,58H48V59H47zM49,58H50V59H49zM51,58H52V59H51zM52,58H53V59H52zM53,58H54V59H53zM54,58H55V59H54zM55,58H56V59H55zM56,58H57V59H56zM59,58H60V59H59zM0,59H1V60H0zM6,59H7V60H6zM10,59H11V60H10zM14,59H15V60H14zM15,59H16V60H15zM17,59H18V60H17zM19,59H20V60H19zM20,59H21V60H20zM23,59H24V60H23zM26,59H27V60H26zM27,59H28V60H27zM29,59H30V60H29zM30,59H31V60H30zM31,59H32V60H31zM34,59H35V60H34zM37,59H38V60H37zM38,59H39V60H38zM40,59H41V60H40zM41,59H42V60H41zM42,59H43V60H42zM43,59H44V60H43zM45,59H46V60H45zM46,59H47V60H46zM49,59H50V60H49zM51,59H52V60H51zM53,59H54V60H53zM56,59H57V60H56zM57,59H58V60H57zM58,59H59V60H58zM59,59H60V60H59zM0,60H1V61H0zM1,60H2V61H1zM2,60H3V61H2zM3,60H4V61H3zM4,60H5V61H4zM5,60H6V61H5zM6,60H7V61H6zM8,60H9V61H8zM9,60H10V61H9zM11,60H12V61H11zM12,60H13V61H12zM13,60H14V61H13zM14,60H15V61H14zM15,60H16V61H15zM19,60H20V61H19zM20,60H21V61H20zM22,60H23V61H22zM24,60H25V61H24zM27,60H28V61H27zM28,60H29V61H28zM30,60H31V61H30zM31,60H32V61H31zM37,60H38V61H37zM38,60H39V61H38zM43,60H44V61H43zM44,60H45V61H44zM46,60H47V61H46zM49,60H50V61H49zM50,60H51V61H50zM52,60H53V61H52zM53,60H54V61H53zM54,60H55V61H54zM55,60H56V61H55zM56,60H57V61H56zM59,60H60V61H59zM60,60H61V61H60z" style="fill:#000000;fill-opacity:1;fill-rule:nonzero;stroke:none" transform="translate(237.40157,61) scale(2.6603845901639342)" /><g id="swiss-cross" transform="translate(305.4890105263158,129.0874405263158) scale(1.305428947368421)"><polygon fill="black" points="18.3,0.7 1.6,0.7 0.7,0.7 0.7,1.6 0.7,18.3 0.7,19.1 1.6,19.1 18.3,19.1 19.1,19.1 19.1,18.3 19.1,1.6 19.1,0.7" /><rect fill="white" height="11" width="3.3" x="8.3" y="4" /><rect fill="white" height="3.3" width="11" x="4.4" y="7.9" /><polygon fill="none" points="0.7,1.6 0.7,18.3 0.7,19.1 1.6,19.1 18.3,19.1 19.1,19.1 19.1,18.3 19.1,1.6 19.1,0.7 18.3,0.7 1.6,0.7 0.7,0.7" stroke="white" stroke-width="1.4357" /></g><text font-family="Arial,Helvetica" font-size="7.6499999999999995" font-weight="bold" x="237.40157" y="258.66141">Währung</text><text font-family="Arial,Helvetica" font-size="7.6499999999999995" font-weight="bold" x="279.92125" y="258.66141">Betrag</text><text font-family="Arial,Helvetica" font-size="8.5" x="237.40157" y="276.37795">CHF</text><text font-family="Arial,Helvetica" font-size="8.5" x="279.92125" y="276.37795">133.00</text><text font-family="Arial,Helvetica" font-size="7.6499999999999995" font-weight="bold" x="418.11023" y="38.97638">Konto / Zahlbar an</text><text font-family="Arial,Helvetica" font-size="8.5" x="418.11023" y="51.37795">CH20 0025 1251 8354 2001 D</text><text font-family="Arial,Helvetica" font-size="8.5" x="418.11023" y="63.77953">Dolder Eis &amp; Bad AG</text><text font-family="Arial,Helvetica" font-size="8.5" x="418.11023" y="76.1811">Adlisbergstrasse 36</text><text font-family="Arial,Helvetica" font-size="8.5" x="418.11023" y="88.58267">CH-8098 Zürich</text><text font-family="Arial,Helvetica" font-size="7.6499999999999995" font-weight="bold" x="418.11023" y="111.61417">Zusätzliche Informationen</text><text font-family="Arial,Helvetica" font-size="8.5" x="418.11023" y="124.01574">Nachzahlgebühr-Nr.: 12</text><text font-family="Arial,Helvetica" font-size="7.6499999999999995" font-weight="bold" x="418.11023" y="147.04724">Zahlbar durch</text><text font-family="Arial,Helvetica" font-size="8.5" x="418.11023" y="159.44881">Ahmed</text><text font-family="Arial,Helvetica" font-size="8.5" x="418.11023" y="171.85039">down town 23,billboard</text><text font-family="Arial,Helvetica" font-size="8.5" x="418.11023" y="184.25196">CH-Karchi 123</text></g></svg>